<svg width="1600" height="5400" viewBox="0 0 1600 5400" fill="none" xmlns="http://www.w3.org/2000/svg">
<g clip-path="url(#clip0_277_325)">
<rect width="1600" height="5400" fill="#E7ECF3"/>
<g filter="url(#filter0_f_277_325)">
<ellipse cx="1583" cy="949.5" rx="396" ry="405.5" fill="#0066FE" fill-opacity="0.5"/>
</g>
<g filter="url(#filter1_f_277_325)">
<ellipse cx="1727" cy="5134.5" rx="396" ry="405.5" fill="#0066FE" fill-opacity="0.5"/>
</g>
<g filter="url(#filter2_f_277_325)">
<ellipse cx="7" cy="56.5" rx="396" ry="405.5" fill="#0066FE" fill-opacity="0.5"/>
</g>
<g opacity="0.6">
<path d="M1703.94 807.351C1703.94 941.88 1594.88 1050.94 1460.35 1050.94C1325.82 1050.94 1216.76 941.88 1216.76 807.351C1216.76 672.822 1325.82 563.765 1460.35 563.765C1594.88 563.765 1703.94 672.822 1703.94 807.351Z" stroke="#0066FE" stroke-width="1.52924"/>
<path d="M1797.24 909.535C1797.24 1031.8 1698.12 1130.91 1575.86 1130.91C1453.6 1130.91 1354.49 1031.8 1354.49 909.535C1354.49 787.274 1453.6 688.162 1575.86 688.162C1698.12 688.162 1797.24 787.274 1797.24 909.535Z" stroke="#0066FE" stroke-width="1.52924"/>
<path d="M1760.93 856.221C1760.93 990.328 1652.21 1099.04 1518.11 1099.04C1384 1099.04 1275.28 990.328 1275.28 856.221C1275.28 722.114 1384 613.399 1518.11 613.399C1652.21 613.399 1760.93 722.114 1760.93 856.221Z" stroke="#0066FE" stroke-width="3.05848"/>
<path opacity="0.7" d="M1704.7 887.321C1704.7 1022.27 1595.3 1131.67 1460.35 1131.67C1325.4 1131.67 1216 1022.27 1216 887.321C1216 752.369 1325.4 642.97 1460.35 642.97C1595.3 642.97 1704.7 752.369 1704.7 887.321Z" stroke="#0066FE" stroke-width="1.52924" stroke-linecap="round" stroke-dasharray="9.18 9.18"/>
<path opacity="0.7" d="M1780.23 785.137C1780.23 907.82 1680.78 1007.27 1558.09 1007.27C1435.41 1007.27 1335.95 907.82 1335.95 785.137C1335.95 662.454 1435.41 563 1558.09 563C1680.78 563 1780.23 662.454 1780.23 785.137Z" stroke="#0066FE" stroke-width="1.52924" stroke-linecap="round" stroke-dasharray="9.18 9.18"/>
<path d="M1612.79 854C1612.79 907.518 1569.4 950.903 1515.89 950.903C1462.37 950.903 1418.98 907.518 1418.98 854C1418.98 800.482 1462.37 757.097 1515.89 757.097C1569.4 757.097 1612.79 800.482 1612.79 854Z" stroke="#0066FE" stroke-width="6.11696"/>
<path d="M1626.12 854.001C1626.12 914.88 1576.76 964.233 1515.89 964.233C1455.01 964.233 1405.65 914.88 1405.65 854.001C1405.65 793.122 1455.01 743.769 1515.89 743.769C1576.76 743.769 1626.12 793.122 1626.12 854.001Z" stroke="#0066FE" stroke-width="6.11696"/>
<path d="M1571.42 854C1571.42 884.671 1546.56 909.535 1515.88 909.535C1485.21 909.535 1460.35 884.671 1460.35 854C1460.35 823.329 1485.21 798.466 1515.88 798.466C1546.56 798.466 1571.42 823.329 1571.42 854Z" fill="#0066FE"/>
<path d="M1566.83 854C1566.83 882.137 1544.02 904.947 1515.88 904.947C1487.75 904.947 1464.94 882.137 1464.94 854C1464.94 825.863 1487.75 803.054 1515.88 803.054C1544.02 803.054 1566.83 825.863 1566.83 854Z" stroke="white" stroke-opacity="0.5" stroke-width="9.17544"/>
<path d="M1515.89 994.527C1593.5 994.527 1656.41 931.611 1656.41 854.001C1656.41 776.39 1593.5 713.474 1515.89 713.474C1438.28 713.474 1375.36 776.39 1375.36 854.001C1375.36 931.611 1438.28 994.527 1515.89 994.527Z" stroke="#0066FE" stroke-width="36.7018"/>
</g>
<g opacity="0.6">
<path d="M1782.81 5027.29C1782.81 5151.84 1681.84 5252.81 1557.29 5252.81C1432.73 5252.81 1331.76 5151.84 1331.76 5027.29C1331.76 4902.73 1432.73 4801.76 1557.29 4801.76C1681.84 4801.76 1782.81 4902.73 1782.81 5027.29Z" stroke="#0066FE" stroke-width="1.52924"/>
<path d="M1869.21 5121.92C1869.21 5235.11 1777.45 5326.87 1664.26 5326.87C1551.07 5326.87 1459.31 5235.11 1459.31 5121.92C1459.31 5008.72 1551.07 4916.97 1664.26 4916.97C1777.45 4916.97 1869.21 5008.72 1869.21 5121.92Z" stroke="#0066FE" stroke-width="1.52924"/>
<path d="M1835.53 5072.54C1835.53 5196.67 1734.9 5297.3 1610.77 5297.3C1486.64 5297.3 1386.01 5196.67 1386.01 5072.54C1386.01 4948.41 1486.64 4847.79 1610.77 4847.79C1734.9 4847.79 1835.53 4948.41 1835.53 5072.54Z" stroke="#0066FE" stroke-width="3.05848"/>
<path opacity="0.7" d="M1783.57 5101.34C1783.57 5226.32 1682.26 5327.63 1557.29 5327.63C1432.31 5327.63 1331 5226.32 1331 5101.34C1331 4976.37 1432.31 4875.06 1557.29 4875.06C1682.26 4875.06 1783.57 4976.37 1783.57 5101.34Z" stroke="#0066FE" stroke-width="1.52924" stroke-linecap="round" stroke-dasharray="9.18 9.18"/>
<path opacity="0.7" d="M1853.52 5006.71C1853.52 5120.33 1761.41 5212.43 1647.8 5212.43C1534.19 5212.43 1442.09 5120.33 1442.09 5006.71C1442.09 4893.1 1534.19 4801 1647.8 4801C1761.41 4801 1853.52 4893.1 1853.52 5006.71Z" stroke="#0066FE" stroke-width="1.52924" stroke-linecap="round" stroke-dasharray="9.18 9.18"/>
<path d="M1698.23 5070.49C1698.23 5119.92 1658.15 5160 1608.72 5160C1559.28 5160 1519.2 5119.92 1519.2 5070.49C1519.2 5021.05 1559.28 4980.97 1608.72 4980.97C1658.15 4980.97 1698.23 5021.05 1698.23 5070.49Z" stroke="#0066FE" stroke-width="6.11696"/>
<path d="M1710.57 5070.49C1710.57 5126.74 1664.97 5172.34 1608.71 5172.34C1552.46 5172.34 1506.86 5126.74 1506.86 5070.49C1506.86 5014.23 1552.46 4968.63 1608.71 4968.63C1664.97 4968.63 1710.57 5014.23 1710.57 5070.49Z" stroke="#0066FE" stroke-width="6.11696"/>
<path d="M1660.14 5070.49C1660.14 5098.89 1637.12 5121.91 1608.71 5121.91C1580.31 5121.91 1557.29 5098.89 1557.29 5070.49C1557.29 5042.08 1580.31 5019.06 1608.71 5019.06C1637.12 5019.06 1660.14 5042.08 1660.14 5070.49Z" fill="#0066FE"/>
<path d="M1655.55 5070.49C1655.55 5096.36 1634.58 5117.33 1608.71 5117.33C1582.84 5117.33 1561.87 5096.36 1561.87 5070.49C1561.87 5044.62 1582.84 5023.65 1608.71 5023.65C1634.58 5023.65 1655.55 5044.62 1655.55 5070.49Z" stroke="white" stroke-opacity="0.5" stroke-width="9.17544"/>
<path d="M1608.72 5201.98C1681.34 5201.98 1740.21 5143.11 1740.21 5070.49C1740.21 4997.86 1681.34 4938.99 1608.72 4938.99C1536.09 4938.99 1477.22 4997.86 1477.22 5070.49C1477.22 5143.11 1536.09 5201.98 1608.72 5201.98Z" stroke="#0066FE" stroke-width="36.7018"/>
</g>
<g opacity="0.6">
<path d="M219.938 1652.35C219.938 1786.88 110.88 1895.94 -23.6489 1895.94C-158.178 1895.94 -267.235 1786.88 -267.235 1652.35C-267.235 1517.82 -158.178 1408.76 -23.6489 1408.76C110.88 1408.76 219.938 1517.82 219.938 1652.35Z" stroke="#0066FE" stroke-width="1.52924"/>
<path d="M313.235 1754.53C313.235 1876.8 214.123 1975.91 91.8625 1975.91C-30.3983 1975.91 -129.51 1876.8 -129.51 1754.53C-129.51 1632.27 -30.3983 1533.16 91.8625 1533.16C214.123 1533.16 313.235 1632.27 313.235 1754.53Z" stroke="#0066FE" stroke-width="1.52924"/>
<path d="M276.927 1701.22C276.927 1835.33 168.212 1944.04 34.1055 1944.04C-100.001 1944.04 -208.716 1835.33 -208.716 1701.22C-208.716 1567.11 -100.001 1458.4 34.1055 1458.4C168.212 1458.4 276.927 1567.11 276.927 1701.22Z" stroke="#0066FE" stroke-width="3.05848"/>
<path opacity="0.7" d="M220.702 1732.32C220.702 1867.27 111.302 1976.67 -23.6489 1976.67C-158.6 1976.67 -268 1867.27 -268 1732.32C-268 1597.37 -158.6 1487.97 -23.6489 1487.97C111.302 1487.97 220.702 1597.37 220.702 1732.32Z" stroke="#0066FE" stroke-width="1.52924" stroke-linecap="round" stroke-dasharray="9.18 9.18"/>
<path opacity="0.7" d="M296.229 1630.14C296.229 1752.82 196.775 1852.27 74.0919 1852.27C-48.5911 1852.27 -148.045 1752.82 -148.045 1630.14C-148.045 1507.45 -48.5911 1408 74.0919 1408C196.775 1408 296.229 1507.45 296.229 1630.14Z" stroke="#0066FE" stroke-width="1.52924" stroke-linecap="round" stroke-dasharray="9.18 9.18"/>
<path d="M128.789 1699C128.789 1752.52 85.4039 1795.9 31.8856 1795.9C-21.6326 1795.9 -65.0177 1752.52 -65.0177 1699C-65.0177 1645.48 -21.6326 1602.1 31.8856 1602.1C85.4039 1602.1 128.789 1645.48 128.789 1699Z" stroke="#0066FE" stroke-width="6.11696"/>
<path d="M142.117 1699C142.117 1759.88 92.7645 1809.23 31.8853 1809.23C-28.9939 1809.23 -78.3463 1759.88 -78.3463 1699C-78.3463 1638.12 -28.9939 1588.77 31.8853 1588.77C92.7645 1588.77 142.117 1638.12 142.117 1699Z" stroke="#0066FE" stroke-width="6.11696"/>
<path d="M87.4188 1699C87.4188 1729.67 62.5552 1754.53 31.8844 1754.53C1.21367 1754.53 -23.6499 1729.67 -23.6499 1699C-23.6499 1668.33 1.21367 1643.47 31.8844 1643.47C62.5552 1643.47 87.4188 1668.33 87.4188 1699Z" fill="#0066FE"/>
<path d="M82.8311 1699C82.8311 1727.14 60.0215 1749.95 31.8844 1749.95C3.7474 1749.95 -19.0622 1727.14 -19.0622 1699C-19.0622 1670.86 3.7474 1648.05 31.8844 1648.05C60.0215 1648.05 82.8311 1670.86 82.8311 1699Z" stroke="white" stroke-opacity="0.5" stroke-width="9.17544"/>
<path d="M31.886 1839.53C109.497 1839.53 172.412 1776.61 172.412 1699C172.412 1621.39 109.497 1558.47 31.886 1558.47C-45.7246 1558.47 -108.64 1621.39 -108.64 1699C-108.64 1776.61 -45.7246 1839.53 31.886 1839.53Z" stroke="#0066FE" stroke-width="36.7018"/>
</g>
<g opacity="0.6">
<path d="M226.938 3538.35C226.938 3672.88 117.88 3781.94 -16.6489 3781.94C-151.178 3781.94 -260.235 3672.88 -260.235 3538.35C-260.235 3403.82 -151.178 3294.76 -16.6489 3294.76C117.88 3294.76 226.938 3403.82 226.938 3538.35Z" stroke="#0066FE" stroke-width="1.52924"/>
<path d="M320.235 3640.53C320.235 3762.8 221.123 3861.91 98.8625 3861.91C-23.3983 3861.91 -122.51 3762.8 -122.51 3640.53C-122.51 3518.27 -23.3983 3419.16 98.8625 3419.16C221.123 3419.16 320.235 3518.27 320.235 3640.53Z" stroke="#0066FE" stroke-width="1.52924"/>
<path d="M283.927 3587.22C283.927 3721.33 175.212 3830.04 41.1055 3830.04C-93.0013 3830.04 -201.716 3721.33 -201.716 3587.22C-201.716 3453.11 -93.0013 3344.4 41.1055 3344.4C175.212 3344.4 283.927 3453.11 283.927 3587.22Z" stroke="#0066FE" stroke-width="3.05848"/>
<path opacity="0.7" d="M227.702 3618.32C227.702 3753.27 118.302 3862.67 -16.6489 3862.67C-151.6 3862.67 -261 3753.27 -261 3618.32C-261 3483.37 -151.6 3373.97 -16.6489 3373.97C118.302 3373.97 227.702 3483.37 227.702 3618.32Z" stroke="#0066FE" stroke-width="1.52924" stroke-linecap="round" stroke-dasharray="9.18 9.18"/>
<path opacity="0.7" d="M303.229 3516.14C303.229 3638.82 203.775 3738.27 81.0919 3738.27C-41.5911 3738.27 -141.045 3638.82 -141.045 3516.14C-141.045 3393.45 -41.5911 3294 81.0919 3294C203.775 3294 303.229 3393.45 303.229 3516.14Z" stroke="#0066FE" stroke-width="1.52924" stroke-linecap="round" stroke-dasharray="9.18 9.18"/>
<path d="M135.789 3585C135.789 3638.52 92.4039 3681.9 38.8856 3681.9C-14.6326 3681.9 -58.0177 3638.52 -58.0177 3585C-58.0177 3531.48 -14.6326 3488.1 38.8856 3488.1C92.4039 3488.1 135.789 3531.48 135.789 3585Z" stroke="#0066FE" stroke-width="6.11696"/>
<path d="M149.117 3585C149.117 3645.88 99.7645 3695.23 38.8853 3695.23C-21.9939 3695.23 -71.3463 3645.88 -71.3463 3585C-71.3463 3524.12 -21.9939 3474.77 38.8853 3474.77C99.7645 3474.77 149.117 3524.12 149.117 3585Z" stroke="#0066FE" stroke-width="6.11696"/>
<path d="M94.4188 3585C94.4188 3615.67 69.5552 3640.53 38.8844 3640.53C8.21367 3640.53 -16.6499 3615.67 -16.6499 3585C-16.6499 3554.33 8.21367 3529.47 38.8844 3529.47C69.5552 3529.47 94.4188 3554.33 94.4188 3585Z" fill="#0066FE"/>
<path d="M89.8311 3585C89.8311 3613.14 67.0215 3635.95 38.8844 3635.95C10.7474 3635.95 -12.0622 3613.14 -12.0622 3585C-12.0622 3556.86 10.7474 3534.05 38.8844 3534.05C67.0215 3534.05 89.8311 3556.86 89.8311 3585Z" stroke="white" stroke-opacity="0.5" stroke-width="9.17544"/>
<path d="M38.886 3725.53C116.497 3725.53 179.412 3662.61 179.412 3585C179.412 3507.39 116.497 3444.47 38.886 3444.47C-38.7246 3444.47 -101.64 3507.39 -101.64 3585C-101.64 3662.61 -38.7246 3725.53 38.886 3725.53Z" stroke="#0066FE" stroke-width="36.7018"/>
</g>
<circle cx="981" cy="100" r="172.5" stroke="#0066FE" stroke-dasharray="10 10"/>
<circle cx="1423.5" cy="298.5" r="118" stroke="#0066FE"/>
<circle cx="1423.5" cy="298.5" r="118" stroke="#0066FE"/>
<circle cx="181.5" cy="4734.5" r="118" stroke="#0066FE"/>
<circle cx="1078.5" cy="3267.5" r="147" stroke="#0066FE"/>
<g opacity="0.6">
<path d="M208.694 71.2291C208.694 209.005 97.0045 320.694 -40.7709 320.694C-178.546 320.694 -290.235 209.005 -290.235 71.2291C-290.235 -66.5463 -178.546 -178.235 -40.7709 -178.235C97.0045 -178.235 208.694 -66.5463 208.694 71.2291Z" stroke="#0066FE" stroke-width="1.52924"/>
<path d="M304.235 175.871C304.235 301.083 202.731 402.587 77.5191 402.587C-47.6929 402.587 -149.197 301.083 -149.197 175.871C-149.197 50.6587 -47.6929 -50.8457 77.5191 -50.8457C202.731 -50.8457 304.235 50.6587 304.235 175.871Z" stroke="#0066FE" stroke-width="1.52924"/>
<path d="M267.073 121.275C267.073 258.628 155.726 369.975 18.3727 369.975C-118.98 369.975 -230.327 258.628 -230.327 121.275C-230.327 -16.0781 -118.98 -127.425 18.3727 -127.425C155.726 -127.425 267.073 -16.0781 267.073 121.275Z" stroke="#0066FE" stroke-width="3.05848"/>
<path opacity="0.7" d="M209.458 153.122C209.458 291.319 97.4268 403.351 -40.7709 403.351C-178.969 403.351 -291 291.319 -291 153.122C-291 14.924 -178.969 -97.1074 -40.7709 -97.1074C97.4268 -97.1074 209.458 14.924 209.458 153.122Z" stroke="#0066FE" stroke-width="1.52924" stroke-linecap="round" stroke-dasharray="9.18 9.18"/>
<path opacity="0.7" d="M286.802 48.481C286.802 174.115 184.956 275.962 59.3213 275.962C-66.313 275.962 -168.16 174.115 -168.16 48.481C-168.16 -77.1533 -66.313 -179 59.3213 -179C184.956 -179 286.802 -77.1533 286.802 48.481Z" stroke="#0066FE" stroke-width="1.52924" stroke-linecap="round" stroke-dasharray="9.18 9.18"/>
<path d="M115.408 119C115.408 173.847 70.9461 218.308 16.0998 218.308C-38.7464 218.308 -83.2081 173.847 -83.2081 119C-83.2081 64.154 -38.7464 19.6923 16.0998 19.6923C70.9461 19.6923 115.408 64.154 115.408 119Z" stroke="#0066FE" stroke-width="6.11696"/>
<path d="M129.056 119.001C129.056 181.385 78.4836 231.957 16.0993 231.957C-46.285 231.957 -96.8575 181.385 -96.8575 119.001C-96.8575 56.6163 -46.285 6.04383 16.0993 6.04383C78.4836 6.04383 129.056 56.6163 129.056 119.001Z" stroke="#0066FE" stroke-width="6.11696"/>
<path d="M72.9685 119.001C72.9685 150.41 47.5069 175.871 16.0983 175.871C-15.3103 175.871 -40.772 150.41 -40.772 119.001C-40.772 87.5925 -15.3103 62.1309 16.0983 62.1309C47.5069 62.1309 72.9685 87.5925 72.9685 119.001Z" fill="#0066FE"/>
<path d="M68.3808 119.001C68.3808 147.876 44.9731 171.284 16.0983 171.284C-12.7766 171.284 -36.1843 147.876 -36.1843 119.001C-36.1843 90.1263 -12.7766 66.7186 16.0983 66.7186C44.9731 66.7186 68.3808 90.1263 68.3808 119.001Z" stroke="white" stroke-opacity="0.5" stroke-width="9.17544"/>
<path d="M16.1004 262.466C95.3342 262.466 159.566 198.234 159.566 119C159.566 39.7665 95.3342 -24.4651 16.1004 -24.4651C-63.1334 -24.4651 -127.365 39.7665 -127.365 119C-127.365 198.234 -63.1334 262.466 16.1004 262.466Z" stroke="#0066FE" stroke-width="36.7018"/>
</g>
<circle cx="981" cy="112" r="75" fill="#0066FE" fill-opacity="0.6"/>
<circle cx="367.5" cy="753.5" r="121" stroke="#0066FE" stroke-dasharray="10 10"/>
<circle cx="743.5" cy="4562.5" r="121" stroke="#0066FE" stroke-dasharray="10 10"/>
<circle cx="1448" cy="1671" r="74.5" stroke="#0066FE" stroke-dasharray="10 10"/>
<circle cx="24.5" cy="593.5" r="118" stroke="#0066FE"/>
<circle cx="101" cy="1072" r="71.5" stroke="#0066FE"/>
<circle cx="622" cy="3683" r="71.5" stroke="#0066FE"/>
<circle cx="548.5" cy="198.5" r="44.5" stroke="#0066FE" stroke-opacity="0.6" stroke-width="30"/>
<circle cx="1014" cy="976" r="46" stroke="#0066FE" stroke-opacity="0.6" stroke-width="30"/>
<circle cx="173.5" cy="2452.5" r="62.5" stroke="#0066FE" stroke-opacity="0.6" stroke-width="30"/>
<circle cx="367.5" cy="753.5" r="66.5" fill="#0066FE" fill-opacity="0.6"/>
<circle cx="581.5" cy="2273.5" r="121" stroke="#0066FE" stroke-dasharray="10 10"/>
<circle cx="581.5" cy="2273.5" r="66.5" fill="#0066FE" fill-opacity="0.6"/>
<circle cx="743.5" cy="4562.5" r="66.5" fill="#0066FE" fill-opacity="0.6"/>
<circle cx="101" cy="1072" r="42" fill="#0066FE" fill-opacity="0.6"/>
<circle cx="622" cy="3683" r="42" fill="#0066FE" fill-opacity="0.6"/>
<circle cx="1448" cy="1671" r="42" fill="#0066FE" fill-opacity="0.6"/>
<circle cx="1069" cy="2904" r="74.5" stroke="#0066FE" stroke-dasharray="10 10"/>
<circle cx="1069" cy="2904" r="42" fill="#0066FE" fill-opacity="0.6"/>
<circle cx="170" cy="4308" r="42" fill="#0066FE" fill-opacity="0.6"/>
<circle cx="1423.5" cy="298.5" r="66.5" stroke="#0066FE" stroke-opacity="0.6" stroke-width="30"/>
<circle cx="181.5" cy="4734.5" r="66.5" stroke="#0066FE" stroke-opacity="0.6" stroke-width="30"/>
<circle cx="1078.5" cy="3267.5" r="82.5" stroke="#0066FE" stroke-opacity="0.6" stroke-width="40"/>
<circle cx="1594.5" cy="1392.5" r="118" stroke="#0066FE"/>
<g filter="url(#filter3_f_277_325)">
<ellipse cx="1627" cy="2771.5" rx="396" ry="405.5" fill="#0066FE" fill-opacity="0.5"/>
</g>
<g filter="url(#filter4_f_277_325)">
<ellipse cx="-48.5" cy="3585.91" rx="350.5" ry="358.908" fill="#0066FE" fill-opacity="0.5"/>
</g>
<g filter="url(#filter5_f_277_325)">
<ellipse cx="-39" cy="5450.5" rx="396" ry="405.5" fill="#0066FE" fill-opacity="0.5"/>
</g>
<g opacity="0.6">
<path d="M1772.94 2660.35C1772.94 2794.88 1663.88 2903.94 1529.35 2903.94C1394.82 2903.94 1285.76 2794.88 1285.76 2660.35C1285.76 2525.82 1394.82 2416.76 1529.35 2416.76C1663.88 2416.76 1772.94 2525.82 1772.94 2660.35Z" stroke="#0066FE" stroke-width="1.52924"/>
<path d="M1866.24 2762.53C1866.24 2884.8 1767.12 2983.91 1644.86 2983.91C1522.6 2983.91 1423.49 2884.8 1423.49 2762.53C1423.49 2640.27 1522.6 2541.16 1644.86 2541.16C1767.12 2541.16 1866.24 2640.27 1866.24 2762.53Z" stroke="#0066FE" stroke-width="1.52924"/>
<path d="M1829.93 2709.22C1829.93 2843.33 1721.21 2952.04 1587.11 2952.04C1453 2952.04 1344.28 2843.33 1344.28 2709.22C1344.28 2575.11 1453 2466.4 1587.11 2466.4C1721.21 2466.4 1829.93 2575.11 1829.93 2709.22Z" stroke="#0066FE" stroke-width="3.05848"/>
<path opacity="0.7" d="M1773.7 2740.32C1773.7 2875.27 1664.3 2984.67 1529.35 2984.67C1394.4 2984.67 1285 2875.27 1285 2740.32C1285 2605.37 1394.4 2495.97 1529.35 2495.97C1664.3 2495.97 1773.7 2605.37 1773.7 2740.32Z" stroke="#0066FE" stroke-width="1.52924" stroke-linecap="round" stroke-dasharray="9.18 9.18"/>
<path opacity="0.7" d="M1849.23 2638.14C1849.23 2760.82 1749.78 2860.27 1627.09 2860.27C1504.41 2860.27 1404.95 2760.82 1404.95 2638.14C1404.95 2515.45 1504.41 2416 1627.09 2416C1749.78 2416 1849.23 2515.45 1849.23 2638.14Z" stroke="#0066FE" stroke-width="1.52924" stroke-linecap="round" stroke-dasharray="9.18 9.18"/>
<path d="M1681.79 2707C1681.79 2760.52 1638.4 2803.9 1584.89 2803.9C1531.37 2803.9 1487.98 2760.52 1487.98 2707C1487.98 2653.48 1531.37 2610.1 1584.89 2610.1C1638.4 2610.1 1681.79 2653.48 1681.79 2707Z" stroke="#0066FE" stroke-width="6.11696"/>
<path d="M1695.12 2707C1695.12 2767.88 1645.76 2817.23 1584.89 2817.23C1524.01 2817.23 1474.65 2767.88 1474.65 2707C1474.65 2646.12 1524.01 2596.77 1584.89 2596.77C1645.76 2596.77 1695.12 2646.12 1695.12 2707Z" stroke="#0066FE" stroke-width="6.11696"/>
<path d="M1640.42 2707C1640.42 2737.67 1615.56 2762.53 1584.88 2762.53C1554.21 2762.53 1529.35 2737.67 1529.35 2707C1529.35 2676.33 1554.21 2651.47 1584.88 2651.47C1615.56 2651.47 1640.42 2676.33 1640.42 2707Z" fill="#0066FE"/>
<path d="M1635.83 2707C1635.83 2735.14 1613.02 2757.95 1584.88 2757.95C1556.75 2757.95 1533.94 2735.14 1533.94 2707C1533.94 2678.86 1556.75 2656.05 1584.88 2656.05C1613.02 2656.05 1635.83 2678.86 1635.83 2707Z" stroke="white" stroke-opacity="0.5" stroke-width="9.17544"/>
<path d="M1584.89 2847.53C1662.5 2847.53 1725.41 2784.61 1725.41 2707C1725.41 2629.39 1662.5 2566.47 1584.89 2566.47C1507.28 2566.47 1444.36 2629.39 1444.36 2707C1444.36 2784.61 1507.28 2847.53 1584.89 2847.53Z" stroke="#0066FE" stroke-width="36.7018"/>
</g>
<circle cx="797" cy="2585" r="88.5" stroke="#0066FE"/>
<g opacity="0.6">
<path d="M257.938 5264.35C257.938 5398.88 148.88 5507.94 14.3511 5507.94C-120.178 5507.94 -229.235 5398.88 -229.235 5264.35C-229.235 5129.82 -120.178 5020.76 14.3511 5020.76C148.88 5020.76 257.938 5129.82 257.938 5264.35Z" stroke="#0066FE" stroke-width="1.52924"/>
<path d="M351.235 5366.53C351.235 5488.8 252.123 5587.91 129.862 5587.91C7.60167 5587.91 -91.5103 5488.8 -91.5103 5366.53C-91.5103 5244.27 7.60167 5145.16 129.862 5145.16C252.123 5145.16 351.235 5244.27 351.235 5366.53Z" stroke="#0066FE" stroke-width="1.52924"/>
<path d="M314.927 5313.22C314.927 5447.33 206.212 5556.04 72.1055 5556.04C-62.0013 5556.04 -170.716 5447.33 -170.716 5313.22C-170.716 5179.11 -62.0013 5070.4 72.1055 5070.4C206.212 5070.4 314.927 5179.11 314.927 5313.22Z" stroke="#0066FE" stroke-width="3.05848"/>
<path opacity="0.7" d="M258.702 5344.32C258.702 5479.27 149.302 5588.67 14.3511 5588.67C-120.6 5588.67 -230 5479.27 -230 5344.32C-230 5209.37 -120.6 5099.97 14.3511 5099.97C149.302 5099.97 258.702 5209.37 258.702 5344.32Z" stroke="#0066FE" stroke-width="1.52924" stroke-linecap="round" stroke-dasharray="9.18 9.18"/>
<path opacity="0.7" d="M334.229 5242.14C334.229 5364.82 234.775 5464.27 112.092 5464.27C-10.5911 5464.27 -110.045 5364.82 -110.045 5242.14C-110.045 5119.45 -10.5911 5020 112.092 5020C234.775 5020 334.229 5119.45 334.229 5242.14Z" stroke="#0066FE" stroke-width="1.52924" stroke-linecap="round" stroke-dasharray="9.18 9.18"/>
<path d="M166.789 5311C166.789 5364.52 123.404 5407.9 69.8856 5407.9C16.3674 5407.9 -27.0177 5364.52 -27.0177 5311C-27.0177 5257.48 16.3674 5214.1 69.8856 5214.1C123.404 5214.1 166.789 5257.48 166.789 5311Z" stroke="#0066FE" stroke-width="6.11696"/>
<path d="M180.117 5311C180.117 5371.88 130.764 5421.23 69.8853 5421.23C9.00605 5421.23 -40.3463 5371.88 -40.3463 5311C-40.3463 5250.12 9.00605 5200.77 69.8853 5200.77C130.764 5200.77 180.117 5250.12 180.117 5311Z" stroke="#0066FE" stroke-width="6.11696"/>
<path d="M125.419 5311C125.419 5341.67 100.555 5366.53 69.8844 5366.53C39.2137 5366.53 14.3501 5341.67 14.3501 5311C14.3501 5280.33 39.2137 5255.47 69.8844 5255.47C100.555 5255.47 125.419 5280.33 125.419 5311Z" fill="#0066FE"/>
<path d="M120.831 5311C120.831 5339.14 98.0215 5361.95 69.8844 5361.95C41.7474 5361.95 18.9378 5339.14 18.9378 5311C18.9378 5282.86 41.7474 5260.05 69.8844 5260.05C98.0215 5260.05 120.831 5282.86 120.831 5311Z" stroke="white" stroke-opacity="0.5" stroke-width="9.17544"/>
<path d="M69.886 5451.53C147.497 5451.53 210.412 5388.61 210.412 5311C210.412 5233.39 147.497 5170.47 69.886 5170.47C-7.72461 5170.47 -70.6404 5233.39 -70.6404 5311C-70.6404 5388.61 -7.72461 5451.53 69.886 5451.53Z" stroke="#0066FE" stroke-width="36.7018"/>
</g>
<circle cx="87.5" cy="87.5" r="87.5" transform="matrix(-1 0 0 1 1149 5312)" fill="#0066FE" fill-opacity="0.6"/>
<circle cx="155.5" cy="155.5" r="155" transform="matrix(-1 0 0 1 1217 5244)" stroke="#0066FE" stroke-dasharray="10 10"/>
<circle cx="792" cy="1897" r="42" fill="#0066FE" fill-opacity="0.6"/>
<circle cx="323.5" cy="2001.5" r="55" stroke="#0066FE"/>
<circle cx="524" cy="4106" r="139.5" stroke="#0066FE"/>
<circle cx="797" cy="2585" r="49.5" stroke="#0066FE" stroke-opacity="0.6" stroke-width="25"/>
<g filter="url(#filter6_f_277_325)">
<ellipse cx="-24" cy="1746.5" rx="396" ry="405.5" fill="#0066FE" fill-opacity="0.5"/>
</g>
<circle cx="1422.5" cy="3437.5" r="93" stroke="#0066FE"/>
</g>
<rect x="0.5" y="0.5" width="1599" height="5399" stroke="black" stroke-opacity="0.5"/>
<defs>
<filter id="filter0_f_277_325" x="887" y="244" width="1392" height="1411" filterUnits="userSpaceOnUse" color-interpolation-filters="sRGB">
<feFlood flood-opacity="0" result="BackgroundImageFix"/>
<feBlend mode="normal" in="SourceGraphic" in2="BackgroundImageFix" result="shape"/>
<feGaussianBlur stdDeviation="150" result="effect1_foregroundBlur_277_325"/>
</filter>
<filter id="filter1_f_277_325" x="1031" y="4429" width="1392" height="1411" filterUnits="userSpaceOnUse" color-interpolation-filters="sRGB">
<feFlood flood-opacity="0" result="BackgroundImageFix"/>
<feBlend mode="normal" in="SourceGraphic" in2="BackgroundImageFix" result="shape"/>
<feGaussianBlur stdDeviation="150" result="effect1_foregroundBlur_277_325"/>
</filter>
<filter id="filter2_f_277_325" x="-689" y="-649" width="1392" height="1411" filterUnits="userSpaceOnUse" color-interpolation-filters="sRGB">
<feFlood flood-opacity="0" result="BackgroundImageFix"/>
<feBlend mode="normal" in="SourceGraphic" in2="BackgroundImageFix" result="shape"/>
<feGaussianBlur stdDeviation="150" result="effect1_foregroundBlur_277_325"/>
</filter>
<filter id="filter3_f_277_325" x="931" y="2066" width="1392" height="1411" filterUnits="userSpaceOnUse" color-interpolation-filters="sRGB">
<feFlood flood-opacity="0" result="BackgroundImageFix"/>
<feBlend mode="normal" in="SourceGraphic" in2="BackgroundImageFix" result="shape"/>
<feGaussianBlur stdDeviation="150" result="effect1_foregroundBlur_277_325"/>
</filter>
<filter id="filter4_f_277_325" x="-664.53" y="2961.47" width="1232.06" height="1248.88" filterUnits="userSpaceOnUse" color-interpolation-filters="sRGB">
<feFlood flood-opacity="0" result="BackgroundImageFix"/>
<feBlend mode="normal" in="SourceGraphic" in2="BackgroundImageFix" result="shape"/>
<feGaussianBlur stdDeviation="132.765" result="effect1_foregroundBlur_277_325"/>
</filter>
<filter id="filter5_f_277_325" x="-735" y="4745" width="1392" height="1411" filterUnits="userSpaceOnUse" color-interpolation-filters="sRGB">
<feFlood flood-opacity="0" result="BackgroundImageFix"/>
<feBlend mode="normal" in="SourceGraphic" in2="BackgroundImageFix" result="shape"/>
<feGaussianBlur stdDeviation="150" result="effect1_foregroundBlur_277_325"/>
</filter>
<filter id="filter6_f_277_325" x="-720" y="1041" width="1392" height="1411" filterUnits="userSpaceOnUse" color-interpolation-filters="sRGB">
<feFlood flood-opacity="0" result="BackgroundImageFix"/>
<feBlend mode="normal" in="SourceGraphic" in2="BackgroundImageFix" result="shape"/>
<feGaussianBlur stdDeviation="150" result="effect1_foregroundBlur_277_325"/>
</filter>
<clipPath id="clip0_277_325">
<rect width="1600" height="5400" fill="white"/>
</clipPath>
</defs>
</svg>
