<svg width="1600" height="2966" viewBox="0 0 1600 2966" fill="none" xmlns="http://www.w3.org/2000/svg">
<g clip-path="url(#clip0_257_714)">
<rect width="1600" height="2966" fill="#E7ECF3"/>
<g filter="url(#filter0_f_257_714)">
<ellipse cx="1583" cy="949.5" rx="396" ry="405.5" fill="#0066FE" fill-opacity="0.5"/>
</g>
<g filter="url(#filter1_f_257_714)">
<ellipse cx="7" cy="56.5" rx="396" ry="405.5" fill="#0066FE" fill-opacity="0.5"/>
</g>
<g opacity="0.6">
<path d="M1703.94 807.351C1703.94 941.88 1594.88 1050.94 1460.35 1050.94C1325.82 1050.94 1216.76 941.88 1216.76 807.351C1216.76 672.822 1325.82 563.765 1460.35 563.765C1594.88 563.765 1703.94 672.822 1703.94 807.351Z" stroke="#0066FE" stroke-width="1.52924"/>
<path d="M1797.24 909.535C1797.24 1031.8 1698.12 1130.91 1575.86 1130.91C1453.6 1130.91 1354.49 1031.8 1354.49 909.535C1354.49 787.274 1453.6 688.162 1575.86 688.162C1698.12 688.162 1797.24 787.274 1797.24 909.535Z" stroke="#0066FE" stroke-width="1.52924"/>
<path d="M1760.93 856.221C1760.93 990.328 1652.21 1099.04 1518.11 1099.04C1384 1099.04 1275.28 990.328 1275.28 856.221C1275.28 722.114 1384 613.399 1518.11 613.399C1652.21 613.399 1760.93 722.114 1760.93 856.221Z" stroke="#0066FE" stroke-width="3.05848"/>
<path opacity="0.7" d="M1704.7 887.32C1704.7 1022.27 1595.3 1131.67 1460.35 1131.67C1325.4 1131.67 1216 1022.27 1216 887.32C1216 752.369 1325.4 642.969 1460.35 642.969C1595.3 642.969 1704.7 752.369 1704.7 887.32Z" stroke="#0066FE" stroke-width="1.52924" stroke-linecap="round" stroke-dasharray="9.18 9.18"/>
<path opacity="0.7" d="M1780.23 785.137C1780.23 907.82 1680.78 1007.27 1558.09 1007.27C1435.41 1007.27 1335.95 907.82 1335.95 785.137C1335.95 662.454 1435.41 563 1558.09 563C1680.78 563 1780.23 662.454 1780.23 785.137Z" stroke="#0066FE" stroke-width="1.52924" stroke-linecap="round" stroke-dasharray="9.18 9.18"/>
<path d="M1612.79 854C1612.79 907.518 1569.4 950.903 1515.89 950.903C1462.37 950.903 1418.98 907.518 1418.98 854C1418.98 800.482 1462.37 757.097 1515.89 757.097C1569.4 757.097 1612.79 800.482 1612.79 854Z" stroke="#0066FE" stroke-width="6.11696"/>
<path d="M1626.12 854C1626.12 914.88 1576.76 964.232 1515.89 964.232C1455.01 964.232 1405.65 914.88 1405.65 854C1405.65 793.121 1455.01 743.769 1515.89 743.769C1576.76 743.769 1626.12 793.121 1626.12 854Z" stroke="#0066FE" stroke-width="6.11696"/>
<path d="M1571.42 854C1571.42 884.671 1546.56 909.534 1515.88 909.534C1485.21 909.534 1460.35 884.671 1460.35 854C1460.35 823.329 1485.21 798.466 1515.88 798.466C1546.56 798.466 1571.42 823.329 1571.42 854Z" fill="#0066FE"/>
<path d="M1566.83 854C1566.83 882.137 1544.02 904.947 1515.88 904.947C1487.75 904.947 1464.94 882.137 1464.94 854C1464.94 825.863 1487.75 803.054 1515.88 803.054C1544.02 803.054 1566.83 825.863 1566.83 854Z" stroke="white" stroke-opacity="0.5" stroke-width="9.17544"/>
<path d="M1515.89 994.527C1593.5 994.527 1656.41 931.611 1656.41 854C1656.41 776.39 1593.5 713.474 1515.89 713.474C1438.28 713.474 1375.36 776.39 1375.36 854C1375.36 931.611 1438.28 994.527 1515.89 994.527Z" stroke="#0066FE" stroke-width="36.7018"/>
</g>
<circle cx="981" cy="100" r="172.5" stroke="#0066FE" stroke-dasharray="10 10"/>
<circle cx="1423.5" cy="298.5" r="118" stroke="#0066FE"/>
<circle cx="1423.5" cy="298.5" r="118" stroke="#0066FE"/>
<g opacity="0.6">
<path d="M208.694 71.2291C208.694 209.005 97.0045 320.694 -40.7709 320.694C-178.546 320.694 -290.235 209.005 -290.235 71.2291C-290.235 -66.5463 -178.546 -178.235 -40.7709 -178.235C97.0045 -178.235 208.694 -66.5463 208.694 71.2291Z" stroke="#0066FE" stroke-width="1.52924"/>
<path d="M304.235 175.871C304.235 301.083 202.731 402.587 77.5191 402.587C-47.6929 402.587 -149.197 301.083 -149.197 175.871C-149.197 50.6587 -47.6929 -50.8457 77.5191 -50.8457C202.731 -50.8457 304.235 50.6587 304.235 175.871Z" stroke="#0066FE" stroke-width="1.52924"/>
<path d="M267.073 121.275C267.073 258.628 155.726 369.974 18.3727 369.974C-118.98 369.974 -230.327 258.628 -230.327 121.275C-230.327 -16.0786 -118.98 -127.425 18.3727 -127.425C155.726 -127.425 267.073 -16.0786 267.073 121.275Z" stroke="#0066FE" stroke-width="3.05848"/>
<path opacity="0.7" d="M209.458 153.122C209.458 291.32 97.4268 403.351 -40.7709 403.351C-178.969 403.351 -291 291.32 -291 153.122C-291 14.9244 -178.969 -97.1069 -40.7709 -97.1069C97.4268 -97.1069 209.458 14.9244 209.458 153.122Z" stroke="#0066FE" stroke-width="1.52924" stroke-linecap="round" stroke-dasharray="9.18 9.18"/>
<path opacity="0.7" d="M286.802 48.481C286.802 174.115 184.956 275.962 59.3213 275.962C-66.313 275.962 -168.16 174.115 -168.16 48.481C-168.16 -77.1533 -66.313 -179 59.3213 -179C184.956 -179 286.802 -77.1533 286.802 48.481Z" stroke="#0066FE" stroke-width="1.52924" stroke-linecap="round" stroke-dasharray="9.18 9.18"/>
<path d="M115.408 119C115.408 173.847 70.9461 218.308 16.0998 218.308C-38.7464 218.308 -83.2081 173.847 -83.2081 119C-83.2081 64.154 -38.7464 19.6923 16.0998 19.6923C70.9461 19.6923 115.408 64.154 115.408 119Z" stroke="#0066FE" stroke-width="6.11696"/>
<path d="M129.056 119.001C129.056 181.385 78.4836 231.958 16.0993 231.958C-46.285 231.958 -96.8575 181.385 -96.8575 119.001C-96.8575 56.6168 -46.285 6.04432 16.0993 6.04432C78.4836 6.04432 129.056 56.6168 129.056 119.001Z" stroke="#0066FE" stroke-width="6.11696"/>
<path d="M72.9685 119.001C72.9685 150.41 47.5069 175.871 16.0983 175.871C-15.3103 175.871 -40.772 150.41 -40.772 119.001C-40.772 87.5925 -15.3103 62.1309 16.0983 62.1309C47.5069 62.1309 72.9685 87.5925 72.9685 119.001Z" fill="#0066FE"/>
<path d="M68.3808 119.001C68.3808 147.876 44.9731 171.284 16.0983 171.284C-12.7766 171.284 -36.1843 147.876 -36.1843 119.001C-36.1843 90.1263 -12.7766 66.7186 16.0983 66.7186C44.9731 66.7186 68.3808 90.1263 68.3808 119.001Z" stroke="white" stroke-opacity="0.5" stroke-width="9.17544"/>
<path d="M16.1004 262.466C95.3342 262.466 159.566 198.235 159.566 119.001C159.566 39.767 95.3342 -24.4646 16.1004 -24.4646C-63.1334 -24.4646 -127.365 39.767 -127.365 119.001C-127.365 198.235 -63.1334 262.466 16.1004 262.466Z" stroke="#0066FE" stroke-width="36.7018"/>
</g>
<circle cx="981" cy="112" r="75" fill="#0066FE" fill-opacity="0.6"/>
<circle cx="367.5" cy="753.5" r="121" stroke="#0066FE" stroke-dasharray="10 10"/>
<circle cx="1448" cy="1671" r="74.5" stroke="#0066FE" stroke-dasharray="10 10"/>
<circle cx="24.5" cy="593.5" r="118" stroke="#0066FE"/>
<circle cx="101" cy="1072" r="71.5" stroke="#0066FE"/>
<circle cx="548.5" cy="198.5" r="44.5" stroke="#0066FE" stroke-opacity="0.6" stroke-width="30"/>
<circle cx="1014" cy="976" r="46" stroke="#0066FE" stroke-opacity="0.6" stroke-width="30"/>
<circle cx="367.5" cy="753.5" r="66.5" fill="#0066FE" fill-opacity="0.6"/>
<circle cx="101" cy="1072" r="42" fill="#0066FE" fill-opacity="0.6"/>
<circle cx="1448" cy="1671" r="42" fill="#0066FE" fill-opacity="0.6"/>
<circle cx="1423.5" cy="298.5" r="66.5" stroke="#0066FE" stroke-opacity="0.6" stroke-width="30"/>
</g>
<rect x="0.5" y="0.5" width="1599" height="2965" stroke="black" stroke-opacity="0.5"/>
<defs>
<filter id="filter0_f_257_714" x="887" y="244" width="1392" height="1411" filterUnits="userSpaceOnUse" color-interpolation-filters="sRGB">
<feFlood flood-opacity="0" result="BackgroundImageFix"/>
<feBlend mode="normal" in="SourceGraphic" in2="BackgroundImageFix" result="shape"/>
<feGaussianBlur stdDeviation="150" result="effect1_foregroundBlur_257_714"/>
</filter>
<filter id="filter1_f_257_714" x="-689" y="-649" width="1392" height="1411" filterUnits="userSpaceOnUse" color-interpolation-filters="sRGB">
<feFlood flood-opacity="0" result="BackgroundImageFix"/>
<feBlend mode="normal" in="SourceGraphic" in2="BackgroundImageFix" result="shape"/>
<feGaussianBlur stdDeviation="150" result="effect1_foregroundBlur_257_714"/>
</filter>
<clipPath id="clip0_257_714">
<rect width="1600" height="2966" fill="white"/>
</clipPath>
</defs>
</svg>
