<svg width="300" height="300" viewBox="0 0 300 300" fill="none" xmlns="http://www.w3.org/2000/svg">
<circle cx="150" cy="150" r="150" fill="#0066FE" fill-opacity="0.15"/>
<path d="M29.5245 107.951L48.4949 112.878L44.3557 128.813L25.3852 123.886L26.4341 119.848L42.0441 123.902L44.0855 116.043L28.4756 111.989L29.5245 107.951Z" fill="black"/>
<path d="M23.9444 131.801C23.9532 131.652 23.9734 131.467 24.0051 131.244C24.0182 131.02 24.0478 130.835 24.0938 130.688L27.8393 130.908C27.8174 130.962 27.7999 131.102 27.7868 131.325C27.765 131.698 27.8013 132.037 27.8956 132.341C28.0086 132.647 28.2641 132.914 28.6621 133.143C29.06 133.372 29.6372 133.575 30.3936 133.75C31.1686 133.926 32.1788 134.079 33.424 134.208C34.6868 134.356 36.2593 134.486 38.1414 134.596L43.7318 134.923L42.8973 149.179L23.3308 148.033L23.5762 143.841L39.6766 144.783L40.0334 138.69L37.35 138.532C34.9834 138.394 32.985 138.193 31.355 137.929C29.7436 137.666 28.4353 137.337 27.43 136.942C26.4236 136.565 25.6644 136.119 25.1524 135.603C24.6392 135.105 24.2987 134.534 24.1308 133.888C23.9629 133.242 23.9008 132.547 23.9444 131.801Z" fill="black"/>
<path d="M23.5688 155.148L43.9631 159.756L44.5181 163.891L26.0644 173.741L25.4759 169.356L29.2432 167.325L28.2785 160.138L24.1126 159.199L23.5688 155.148ZM31.891 160.952L32.5167 165.615L38.9474 162.378L31.891 160.952Z" fill="black"/>
<path d="M27.9357 180.744L46.4839 174.41L47.8322 178.358L40.4659 180.874L43.1806 188.823L50.5469 186.307L51.8952 190.255L33.347 196.59L31.9987 192.642L39.895 189.945L37.1803 181.996L29.284 184.692L27.9357 180.744Z" fill="black"/>
<path d="M37.2796 204.836L54.168 194.889L56.2853 198.484L45.0665 205.091L60.6193 205.842L62.6655 209.317L45.7771 219.264L43.6598 215.669L54.8785 209.061L39.3116 208.286L37.2796 204.836Z" fill="black"/>
<path d="M51.3032 226.442L65.9845 213.456L70.9746 219.098C72.1495 220.426 72.9176 221.703 73.2788 222.929C73.6541 224.142 73.6637 225.28 73.3076 226.343C72.9655 227.393 72.3051 228.351 71.3264 229.216C70.3476 230.082 69.3092 230.627 68.2111 230.85C67.127 231.062 65.9988 230.913 64.8266 230.405C63.6684 229.884 62.5018 228.96 61.3269 227.631L59.1009 225.115L54.0673 229.567L51.3032 226.442ZM61.7015 222.814L63.6494 225.017C64.6387 226.135 65.52 226.751 66.2933 226.865C67.0789 226.992 67.8353 226.734 68.5623 226.091C69.2754 225.461 69.6167 224.748 69.5861 223.952C69.5819 223.159 69.085 222.202 68.0957 221.084L66.1479 218.882L61.7015 222.814Z" fill="black"/>
<path d="M69.733 245.451C69.5711 245.325 69.4149 245.191 69.2645 245.05C69.1287 244.92 69.0077 244.802 68.9014 244.696L70.9503 242.068C71.0565 242.175 71.1775 242.293 71.3133 242.422C71.4752 242.549 71.6371 242.675 71.7991 242.801C72.2407 243.145 72.6121 243.352 72.9132 243.421C73.2291 243.502 73.5378 243.47 73.8392 243.327C74.1553 243.194 74.5452 243.013 75.0088 242.783L77.6856 226.372L81.2628 229.161L79.1344 240.816L89.0354 235.221L92.48 237.907L77.9497 245.75C77.1125 246.187 76.3427 246.521 75.64 246.755C74.9521 246.999 74.2816 247.116 73.6283 247.103C73.0013 247.088 72.3786 246.945 71.76 246.676C71.13 246.422 70.4544 246.013 69.733 245.451Z" fill="black"/>
<path d="M86.6655 257.057L95.4823 239.552L99.2084 241.428L93.3515 253.057L106.836 245.27L110.437 247.084L101.62 264.589L97.8937 262.712L103.751 251.084L90.2415 258.858L86.6655 257.057ZM103.463 242.317C102.396 241.78 101.584 241.172 101.027 240.495C100.495 239.808 100.217 239.073 100.194 238.288C100.18 237.487 100.408 236.619 100.878 235.686L104.029 237.273C103.626 238.073 103.482 238.69 103.598 239.125C103.713 239.559 104.03 239.906 104.546 240.167C105.097 240.444 105.581 240.5 105.999 240.334C106.416 240.168 106.827 239.685 107.23 238.885L110.381 240.472C109.911 241.406 109.349 242.105 108.697 242.571C108.053 243.02 107.296 243.234 106.428 243.215C105.569 243.179 104.58 242.88 103.463 242.317Z" fill="black"/>
<path d="M114.55 268.866L118.983 253.359L112.926 251.627L113.88 248.289L130.006 252.899L129.052 256.237L122.994 254.506L118.561 270.012L114.55 268.866Z" fill="black"/>
<path d="M131.519 272.8L133.581 253.309L147.169 254.746L146.804 258.198L137.392 257.203L136.933 261.547L145.509 262.454L145.156 265.795L136.579 264.888L136.061 269.789L145.473 270.784L145.108 274.237L131.519 272.8Z" fill="black"/>
<path d="M164.972 273.492L161.815 254.148L169.248 252.934C170.999 252.649 172.488 252.68 173.718 253.027C174.944 253.357 175.912 253.955 176.621 254.823C177.327 255.673 177.785 256.742 177.996 258.032C178.206 259.321 178.113 260.49 177.717 261.538C177.318 262.568 176.591 263.443 175.536 264.164C174.477 264.866 173.073 265.36 171.323 265.646L168.007 266.187L169.09 272.82L164.972 273.492ZM167.448 262.761L170.349 262.287C171.823 262.046 172.814 261.629 173.323 261.036C173.849 260.439 174.035 259.662 173.878 258.704C173.725 257.764 173.304 257.095 172.614 256.697C171.941 256.277 170.867 256.188 169.393 256.429L166.492 256.902L167.448 262.761Z" fill="black"/>
<path d="M185.631 269.572L185.828 248.665L189.753 247.249L203.278 263.207L199.116 264.708L196.335 261.454L189.513 263.915L189.476 268.185L185.631 269.572ZM189.547 260.212L193.972 258.616L189.451 253.014L189.547 260.212Z" fill="black"/>
<path d="M215.687 256.701C214.206 257.57 212.818 258.082 211.523 258.235C210.244 258.379 209.085 258.194 208.047 257.677C207.015 257.136 206.136 256.32 205.411 255.231L209.178 253.021C209.554 253.514 209.976 253.884 210.445 254.128C210.903 254.357 211.42 254.444 211.993 254.389C212.573 254.308 213.21 254.064 213.902 253.658C215.029 252.997 215.727 252.306 215.997 251.585C216.283 250.855 216.213 250.127 215.788 249.403C215.505 248.92 215.146 248.567 214.713 248.345C214.296 248.114 213.781 248.048 213.169 248.148C212.573 248.238 211.856 248.528 211.018 249.02L209.231 250.068L207.786 247.605L209.573 246.556C210.588 245.961 211.177 245.324 211.34 244.643C211.494 243.947 211.392 243.293 211.033 242.681C210.684 242.085 210.188 241.738 209.545 241.639C208.909 241.514 208.132 241.721 207.215 242.259C206.603 242.618 206.135 243.001 205.811 243.407C205.493 243.788 205.316 244.206 205.28 244.66C205.259 245.105 205.371 245.591 205.616 246.119L201.848 248.329C200.937 246.591 200.761 244.963 201.32 243.445C201.87 241.91 203.24 240.501 205.429 239.216C207.603 237.941 209.463 237.423 211.011 237.662C212.548 237.886 213.756 238.746 214.635 240.243C215.154 241.129 215.381 242.013 215.314 242.896C215.239 243.763 214.862 244.579 214.186 245.344C215.358 244.981 216.413 244.989 217.35 245.37C218.294 245.725 219.088 246.45 219.73 247.545C220.306 248.527 220.563 249.556 220.501 250.631C220.43 251.69 220.007 252.739 219.231 253.778C218.446 254.801 217.265 255.776 215.687 256.701Z" fill="black"/>
<path d="M228.948 247.459L216.155 232.61L221.861 227.694C223.205 226.536 224.492 225.785 225.722 225.44C226.94 225.08 228.078 225.085 229.136 225.455C230.181 225.811 231.13 226.484 231.983 227.474C232.836 228.464 233.367 229.509 233.577 230.61C233.774 231.697 233.611 232.823 233.087 233.989C232.551 235.14 231.612 236.294 230.268 237.452L227.723 239.645L232.109 244.736L228.948 247.459ZM225.457 237.015L227.684 235.096C228.815 234.121 229.443 233.248 229.566 232.476C229.704 231.692 229.456 230.932 228.823 230.197C228.201 229.476 227.493 229.125 226.697 229.145C225.903 229.139 224.941 229.624 223.809 230.598L221.582 232.517L225.457 237.015Z" fill="black"/>
<path d="M244.52 233.33L233.773 215.396L236.38 212.139L256.247 218.687L253.482 222.14L249.411 220.818L244.878 226.478L247.076 230.139L244.52 233.33ZM242.973 223.302L245.914 219.631L239.133 217.213L242.973 223.302Z" fill="black"/>
<path d="M259.917 212.525L242.631 203.286L249.138 191.112L252.2 192.749L247.66 201.243L250.969 203.012L252.685 199.802C253.943 197.448 255.373 195.979 256.976 195.397C258.579 194.814 260.195 194.958 261.825 195.829C263.454 196.7 264.472 197.964 264.878 199.62C265.284 201.277 264.858 203.282 263.599 205.636L259.917 212.525ZM258.821 207.209L260.339 204.37C261.061 203.02 261.352 201.979 261.213 201.249C261.067 200.494 260.615 199.913 259.858 199.509C259.101 199.104 258.375 199.055 257.682 199.362C256.981 199.643 256.27 200.459 255.549 201.809L254.031 204.649L258.821 207.209Z" fill="black"/>
<path d="M272.802 183.908C272.439 185.085 271.917 186.145 271.236 187.088C270.555 188.03 269.711 188.805 268.703 189.413C267.683 189.997 266.492 190.343 265.131 190.451C263.775 190.54 262.241 190.321 260.528 189.794L259.993 189.629C258.352 189.123 257.023 188.459 256.006 187.638C254.978 186.794 254.215 185.846 253.719 184.794C253.228 183.725 252.966 182.609 252.934 181.446C252.901 180.284 253.067 179.114 253.43 177.937C253.793 176.759 254.315 175.7 254.996 174.757C255.677 173.814 256.519 173.048 257.521 172.459C258.528 171.851 259.692 171.497 261.013 171.396C262.321 171.272 263.795 171.463 265.436 171.969L265.971 172.134C267.684 172.661 269.072 173.353 270.137 174.209C271.207 175.046 271.996 176.002 272.505 177.077C273.001 178.129 273.266 179.236 273.298 180.398C273.33 181.561 273.165 182.731 272.802 183.908ZM269.431 182.869C269.684 182.048 269.73 181.232 269.57 180.421C269.397 179.587 268.931 178.818 268.171 178.115C267.399 177.388 266.237 176.786 264.685 176.308L264.15 176.143C262.687 175.692 261.459 175.558 260.465 175.74C259.459 175.898 258.659 176.277 258.064 176.875C257.475 177.455 257.054 178.155 256.801 178.976C256.554 179.779 256.507 180.595 256.662 181.424C256.817 182.253 257.262 183.025 257.999 183.74C258.723 184.432 259.817 185.004 261.28 185.454L261.815 185.619C263.367 186.098 264.663 186.263 265.705 186.115C266.735 185.944 267.555 185.563 268.168 184.97C268.762 184.372 269.183 183.671 269.431 182.869Z" fill="black"/>
<path d="M277.007 162.345L260.978 160.561L260.281 166.822L256.831 166.438L258.686 149.769L262.137 150.153L261.44 156.414L277.469 158.199L277.007 162.345Z" fill="black"/>
<path d="M278.101 144.906L258.549 146.272L258.258 142.11L266.218 141.554L266.101 139.878L257.703 134.178L257.381 129.569L267.162 136.576L276.914 127.923L277.256 132.811L269.174 139.663L269.291 141.339L277.81 140.744L278.101 144.906Z" fill="black"/>
<path d="M274.908 117.686C274.96 117.884 275.004 118.085 275.038 118.288C275.068 118.474 275.092 118.641 275.112 118.79L271.891 119.64C271.871 119.491 271.846 119.323 271.816 119.138C271.764 118.94 271.711 118.741 271.659 118.543C271.516 118.001 271.346 117.612 271.148 117.374C270.946 117.119 270.681 116.957 270.354 116.889C270.022 116.802 269.602 116.71 269.094 116.613L257.024 128.05L255.867 123.664L264.62 115.679L253.353 114.134L252.239 109.91L268.552 112.47C269.482 112.63 270.297 112.83 270.998 113.07C271.693 113.292 272.297 113.606 272.809 114.011C273.299 114.403 273.708 114.894 274.037 115.483C274.384 116.067 274.675 116.801 274.908 117.686Z" fill="black"/>
<circle cx="92.8164" cy="76.8164" r="12.8164" fill="#0066FE" stroke="#0066FE" stroke-width="2"/>
<circle cx="120.449" cy="183.203" r="12.8164" fill="#0066FE" stroke="#0066FE" stroke-width="2"/>
<circle cx="172.952" cy="76.8164" r="12.8164" fill="#0066FE" stroke="#0066FE" stroke-width="2"/>
<circle cx="142.556" cy="127.938" r="12.8164" fill="#0066FE" stroke="#0066FE" stroke-width="2"/>
<path d="M118.377 76.8164H147.391" stroke="#0066FE" stroke-width="5.52657" stroke-linecap="round"/>
<path d="M144.628 182.512H162.589" stroke="#0066FE" stroke-width="5.52657" stroke-linecap="round"/>
<path d="M101.452 182.857H89.3623C85.547 182.857 82.4541 179.764 82.4541 175.949V134.154C82.4541 130.339 85.547 127.246 89.3623 127.246H117.686" stroke="#0066FE" stroke-width="5.52657" stroke-linecap="round"/>
<path d="M164.662 126.556H192.122H212.674C216.489 126.556 219.582 123.463 219.582 119.647V83.7246C219.582 79.9093 216.489 76.8164 212.674 76.8164H198.512" stroke="#0066FE" stroke-width="5.52657" stroke-linecap="round"/>
<path fill-rule="evenodd" clip-rule="evenodd" d="M202.074 145.898H176.406C174.498 145.898 172.952 147.445 172.952 149.353V202.546C172.952 204.453 174.498 206 176.406 206H217.855C219.763 206 221.309 204.453 221.309 202.546V168.103L202.074 145.898Z" fill="#0066FE" fill-opacity="0.5"/>
<path fill-rule="evenodd" clip-rule="evenodd" d="M202.074 145.898H201.966V164.551C201.966 166.458 203.513 168.005 205.42 168.005H221.224L202.074 145.898Z" fill="#0066FE"/>
<line x1="190.222" y1="178.368" x2="204.039" y2="178.368" stroke="white" stroke-width="5.52657" stroke-linecap="round"/>
<line x1="190.222" y1="190.111" x2="204.039" y2="190.111" stroke="white" stroke-width="5.52657" stroke-linecap="round"/>
</svg>
