<svg width="360" height="2560" viewBox="0 0 360 2560" fill="none" xmlns="http://www.w3.org/2000/svg">
<g clip-path="url(#clip0_351_725)">
<rect width="360" height="2560" fill="#E7ECF3"/>
<g filter="url(#filter0_f_351_725)">
<ellipse cx="15.5092" cy="50" rx="145.509" ry="149" fill="#0066FE" fill-opacity="0.5"/>
</g>
<g opacity="0.6">
<path d="M89.621 55.4119C89.621 106.037 48.5811 147.077 -2.04416 147.077C-52.6694 147.077 -93.7093 106.037 -93.7093 55.4119C-93.7093 4.78665 -52.6694 -36.2532 -2.04416 -36.2532C48.5811 -36.2532 89.621 4.78665 89.621 55.4119Z" stroke="#0066FE" stroke-width="0.561916"/>
<path d="M124.727 93.8618C124.727 139.871 87.4292 177.168 41.4204 177.168C-4.58849 177.168 -41.886 139.871 -41.886 93.8618C-41.886 47.8529 -4.58849 10.5554 41.4204 10.5554C87.4292 10.5554 124.727 47.8529 124.727 93.8618Z" stroke="#0066FE" stroke-width="0.561916"/>
<path d="M111.072 73.8011C111.072 124.271 70.1583 165.185 19.6883 165.185C-30.7818 165.185 -71.6959 124.271 -71.6959 73.8011C-71.6959 23.331 -30.7818 -17.5831 19.6883 -17.5831C70.1583 -17.5831 111.072 23.331 111.072 73.8011Z" stroke="#0066FE" stroke-width="1.12383"/>
<path opacity="0.7" d="M89.9019 85.5032C89.9019 136.284 48.7363 177.449 -2.04416 177.449C-52.8246 177.449 -93.9902 136.284 -93.9902 85.5032C-93.9902 34.7228 -52.8246 -6.44287 -2.04416 -6.44287C48.7363 -6.44287 89.9019 34.7228 89.9019 85.5032Z" stroke="#0066FE" stroke-width="0.561916" stroke-linecap="round" stroke-dasharray="3.37 3.37"/>
<path opacity="0.7" d="M118.323 47.0532C118.323 93.2172 80.8998 130.641 34.7358 130.641C-11.4282 130.641 -48.8516 93.2172 -48.8516 47.0532C-48.8516 0.889152 -11.4282 -36.5342 34.7358 -36.5342C80.8998 -36.5342 118.323 0.889152 118.323 47.0532Z" stroke="#0066FE" stroke-width="0.561916" stroke-linecap="round" stroke-dasharray="3.37 3.37"/>
<path d="M55.3431 72.9654C55.3431 93.1185 39.0057 109.456 18.8526 109.456C-1.30055 109.456 -17.6379 93.1185 -17.6379 72.9654C-17.6379 52.8122 -1.30055 36.4749 18.8526 36.4749C39.0057 36.4749 55.3431 52.8122 55.3431 72.9654Z" stroke="#0066FE" stroke-width="2.24766"/>
<path d="M60.3589 72.9655C60.3589 95.8885 41.7762 114.471 18.8532 114.471C-4.06979 114.471 -22.6525 95.8885 -22.6525 72.9655C-22.6525 50.0425 -4.06979 31.4598 18.8532 31.4598C41.7762 31.4598 60.3589 50.0425 60.3589 72.9655Z" stroke="#0066FE" stroke-width="2.24766"/>
<path d="M39.7497 72.9657C39.7497 84.5067 30.3939 93.8625 18.8529 93.8625C7.31189 93.8625 -2.04395 84.5067 -2.04395 72.9657C-2.04395 61.4247 7.31189 52.0688 18.8529 52.0688C30.3939 52.0688 39.7497 61.4247 39.7497 72.9657Z" fill="#0066FE"/>
<path d="M38.064 72.9657C38.064 83.5757 29.4629 92.1768 18.8529 92.1768C8.2429 92.1768 -0.358199 83.5757 -0.358199 72.9657C-0.358199 62.3557 8.2429 53.7546 18.8529 53.7546C29.4629 53.7546 38.064 62.3557 38.064 72.9657Z" stroke="white" stroke-opacity="0.5" stroke-width="3.37149"/>
<path d="M18.8539 125.681C47.9682 125.681 71.5699 102.079 71.5699 72.9652C71.5699 43.851 47.9682 20.2492 18.8539 20.2492C-10.2604 20.2492 -33.8621 43.851 -33.8621 72.9652C-33.8621 102.079 -10.2604 125.681 18.8539 125.681Z" stroke="#0066FE" stroke-width="13.486"/>
</g>
<g filter="url(#filter1_f_351_725)">
<ellipse cx="-31.4908" cy="1258" rx="145.509" ry="149" fill="#0066FE" fill-opacity="0.5"/>
</g>
<g opacity="0.6">
<path d="M42.621 1263.41C42.621 1314.04 1.58109 1355.08 -49.0442 1355.08C-99.6694 1355.08 -140.709 1314.04 -140.709 1263.41C-140.709 1212.79 -99.6694 1171.75 -49.0442 1171.75C1.58109 1171.75 42.621 1212.79 42.621 1263.41Z" stroke="#0066FE" stroke-width="0.561916"/>
<path d="M77.7267 1301.86C77.7267 1347.87 40.4292 1385.17 -5.57964 1385.17C-51.5885 1385.17 -88.886 1347.87 -88.886 1301.86C-88.886 1255.85 -51.5885 1218.56 -5.57964 1218.56C40.4292 1218.56 77.7267 1255.85 77.7267 1301.86Z" stroke="#0066FE" stroke-width="0.561916"/>
<path d="M64.0724 1281.8C64.0724 1332.27 23.1583 1373.19 -27.3117 1373.19C-77.7818 1373.19 -118.696 1332.27 -118.696 1281.8C-118.696 1231.33 -77.7818 1190.42 -27.3117 1190.42C23.1583 1190.42 64.0724 1231.33 64.0724 1281.8Z" stroke="#0066FE" stroke-width="1.12383"/>
<path opacity="0.7" d="M42.9019 1293.5C42.9019 1344.28 1.73625 1385.45 -49.0442 1385.45C-99.8246 1385.45 -140.99 1344.28 -140.99 1293.5C-140.99 1242.72 -99.8246 1201.56 -49.0442 1201.56C1.73625 1201.56 42.9019 1242.72 42.9019 1293.5Z" stroke="#0066FE" stroke-width="0.561916" stroke-linecap="round" stroke-dasharray="3.37 3.37"/>
<path opacity="0.7" d="M71.3231 1255.05C71.3231 1301.22 33.8998 1338.64 -12.2642 1338.64C-58.4282 1338.64 -95.8516 1301.22 -95.8516 1255.05C-95.8516 1208.89 -58.4282 1171.47 -12.2642 1171.47C33.8998 1171.47 71.3231 1208.89 71.3231 1255.05Z" stroke="#0066FE" stroke-width="0.561916" stroke-linecap="round" stroke-dasharray="3.37 3.37"/>
<path d="M8.34306 1280.97C8.34306 1301.12 -7.99429 1317.46 -28.1474 1317.46C-48.3005 1317.46 -64.6379 1301.12 -64.6379 1280.97C-64.6379 1260.81 -48.3005 1244.47 -28.1474 1244.47C-7.99429 1244.47 8.34306 1260.81 8.34306 1280.97Z" stroke="#0066FE" stroke-width="2.24766"/>
<path d="M13.3589 1280.97C13.3589 1303.89 -5.22385 1322.47 -28.1468 1322.47C-51.0698 1322.47 -69.6525 1303.89 -69.6525 1280.97C-69.6525 1258.04 -51.0698 1239.46 -28.1468 1239.46C-5.22385 1239.46 13.3589 1258.04 13.3589 1280.97Z" stroke="#0066FE" stroke-width="2.24766"/>
<path d="M-28.1461 1333.68C0.968155 1333.68 24.5699 1310.08 24.5699 1280.97C24.5699 1251.85 0.968155 1228.25 -28.1461 1228.25C-57.2604 1228.25 -80.8621 1251.85 -80.8621 1280.97C-80.8621 1310.08 -57.2604 1333.68 -28.1461 1333.68Z" stroke="#0066FE" stroke-width="13.486"/>
</g>
<g filter="url(#filter2_f_351_725)">
<ellipse cx="372.5" cy="566.967" rx="144.5" ry="147.967" fill="#0066FE" fill-opacity="0.5"/>
</g>
<g opacity="0.6">
<path d="M446.098 572.341C446.098 622.615 405.343 663.37 355.069 663.37C304.795 663.37 264.04 622.615 264.04 572.341C264.04 522.067 304.795 481.312 355.069 481.312C405.343 481.312 446.098 522.067 446.098 572.341Z" stroke="#0066FE" stroke-width="0.558018"/>
<path d="M480.961 610.525C480.961 656.214 443.922 693.253 398.232 693.253C352.542 693.253 315.504 656.214 315.504 610.525C315.504 564.835 352.542 527.796 398.232 527.796C443.922 527.796 480.961 564.835 480.961 610.525Z" stroke="#0066FE" stroke-width="0.558018"/>
<path d="M467.4 590.603C467.4 640.723 426.77 681.353 376.65 681.353C326.53 681.353 285.9 640.723 285.9 590.603C285.9 540.483 326.53 499.852 376.65 499.852C426.77 499.852 467.4 540.483 467.4 590.603Z" stroke="#0066FE" stroke-width="1.11604"/>
<path opacity="0.7" d="M446.377 602.223C446.377 652.652 405.497 693.532 355.069 693.532C304.641 693.532 263.761 652.652 263.761 602.223C263.761 551.795 304.641 510.915 355.069 510.915C405.497 510.915 446.377 551.795 446.377 602.223Z" stroke="#0066FE" stroke-width="0.558018" stroke-linecap="round" stroke-dasharray="3.35 3.35"/>
<path opacity="0.7" d="M474.601 564.04C474.601 609.884 437.437 647.048 391.594 647.048C345.75 647.048 308.586 609.884 308.586 564.04C308.586 518.196 345.75 481.033 391.594 481.033C437.437 481.033 474.601 518.196 474.601 564.04Z" stroke="#0066FE" stroke-width="0.558018" stroke-linecap="round" stroke-dasharray="3.35 3.35"/>
<path d="M412.059 589.773C412.059 609.786 395.835 626.01 375.821 626.01C355.808 626.01 339.584 609.786 339.584 589.773C339.584 569.759 355.808 553.535 375.821 553.535C395.835 553.535 412.059 569.759 412.059 589.773Z" stroke="#0066FE" stroke-width="2.23207"/>
<path d="M417.039 589.773C417.039 612.537 398.585 630.991 375.821 630.991C353.057 630.991 334.603 612.537 334.603 589.773C334.603 567.009 353.057 548.555 375.821 548.555C398.585 548.555 417.039 567.009 417.039 589.773Z" stroke="#0066FE" stroke-width="2.23207"/>
<path d="M396.573 589.773C396.573 601.234 387.282 610.525 375.821 610.525C364.36 610.525 355.069 601.234 355.069 589.773C355.069 578.312 364.36 569.021 375.821 569.021C387.282 569.021 396.573 578.312 396.573 589.773Z" fill="#0066FE"/>
<path d="M394.899 589.773C394.899 600.309 386.358 608.851 375.821 608.851C365.285 608.851 356.743 600.309 356.743 589.773C356.743 579.236 365.285 570.695 375.821 570.695C386.358 570.695 394.899 579.236 394.899 589.773Z" stroke="white" stroke-opacity="0.5" stroke-width="3.34811"/>
<path d="M375.821 642.123C404.733 642.123 428.172 618.685 428.172 589.773C428.172 560.861 404.733 537.422 375.821 537.422C346.909 537.422 323.471 560.861 323.471 589.773C323.471 618.685 346.909 642.123 375.821 642.123Z" stroke="#0066FE" stroke-width="13.3924"/>
</g>
<circle cx="-10" cy="509" r="57.7553" stroke="#0066FE" stroke-width="0.489451"/>
<circle cx="362.5" cy="417.5" r="25.0546" stroke="#0066FE" stroke-opacity="0.6" stroke-width="16.8908"/>
<circle cx="319.5" cy="101.5" r="63.3165" stroke="#0066FE" stroke-width="0.367052" stroke-dasharray="3.67 3.67"/>
<circle cx="319.5" cy="105.905" r="27.5289" fill="#0066FE" fill-opacity="0.6"/>
<circle cx="361.5" cy="2480.5" r="63.3165" stroke="#0066FE" stroke-width="0.367052" stroke-dasharray="3.67 3.67"/>
<circle cx="361.5" cy="2484.9" r="27.5289" fill="#0066FE" fill-opacity="0.6"/>
<g filter="url(#filter3_f_351_725)">
<ellipse cx="362.509" cy="1951" rx="145.509" ry="149" fill="#0066FE" fill-opacity="0.5"/>
</g>
<g opacity="0.6">
<path d="M436.621 1956.41C436.621 2007.04 395.581 2048.08 344.956 2048.08C294.331 2048.08 253.291 2007.04 253.291 1956.41C253.291 1905.79 294.331 1864.75 344.956 1864.75C395.581 1864.75 436.621 1905.79 436.621 1956.41Z" stroke="#0066FE" stroke-width="0.561916"/>
<path d="M471.727 1994.86C471.727 2040.87 434.429 2078.17 388.42 2078.17C342.412 2078.17 305.114 2040.87 305.114 1994.86C305.114 1948.85 342.412 1911.56 388.42 1911.56C434.429 1911.56 471.727 1948.85 471.727 1994.86Z" stroke="#0066FE" stroke-width="0.561916"/>
<path d="M458.072 1974.8C458.072 2025.27 417.158 2066.19 366.688 2066.19C316.218 2066.19 275.304 2025.27 275.304 1974.8C275.304 1924.33 316.218 1883.42 366.688 1883.42C417.158 1883.42 458.072 1924.33 458.072 1974.8Z" stroke="#0066FE" stroke-width="1.12383"/>
<path opacity="0.7" d="M436.902 1986.5C436.902 2037.28 395.736 2078.45 344.956 2078.45C294.175 2078.45 253.01 2037.28 253.01 1986.5C253.01 1935.72 294.175 1894.56 344.956 1894.56C395.736 1894.56 436.902 1935.72 436.902 1986.5Z" stroke="#0066FE" stroke-width="0.561916" stroke-linecap="round" stroke-dasharray="3.37 3.37"/>
<path opacity="0.7" d="M465.323 1948.05C465.323 1994.22 427.9 2031.64 381.736 2031.64C335.572 2031.64 298.148 1994.22 298.148 1948.05C298.148 1901.89 335.572 1864.47 381.736 1864.47C427.9 1864.47 465.323 1901.89 465.323 1948.05Z" stroke="#0066FE" stroke-width="0.561916" stroke-linecap="round" stroke-dasharray="3.37 3.37"/>
<path d="M402.343 1973.97C402.343 1994.12 386.006 2010.46 365.853 2010.46C345.699 2010.46 329.362 1994.12 329.362 1973.97C329.362 1953.81 345.699 1937.48 365.853 1937.48C386.006 1937.48 402.343 1953.81 402.343 1973.97Z" stroke="#0066FE" stroke-width="2.24766"/>
<path d="M407.359 1973.97C407.359 1996.89 388.776 2015.47 365.853 2015.47C342.93 2015.47 324.347 1996.89 324.347 1973.97C324.347 1951.04 342.93 1932.46 365.853 1932.46C388.776 1932.46 407.359 1951.04 407.359 1973.97Z" stroke="#0066FE" stroke-width="2.24766"/>
<path d="M386.75 1973.97C386.75 1985.51 377.394 1994.86 365.853 1994.86C354.312 1994.86 344.956 1985.51 344.956 1973.97C344.956 1962.42 354.312 1953.07 365.853 1953.07C377.394 1953.07 386.75 1962.42 386.75 1973.97Z" fill="#0066FE"/>
<path d="M385.064 1973.97C385.064 1984.58 376.463 1993.18 365.853 1993.18C355.243 1993.18 346.642 1984.58 346.642 1973.97C346.642 1963.36 355.243 1954.75 365.853 1954.75C376.463 1954.75 385.064 1963.36 385.064 1973.97Z" stroke="white" stroke-opacity="0.5" stroke-width="3.37149"/>
<path d="M365.854 2026.68C394.968 2026.68 418.57 2003.08 418.57 1973.97C418.57 1944.85 394.968 1921.25 365.854 1921.25C336.74 1921.25 313.138 1944.85 313.138 1973.97C313.138 2003.08 336.74 2026.68 365.854 2026.68Z" stroke="#0066FE" stroke-width="13.486"/>
</g>
<g filter="url(#filter4_f_351_725)">
<ellipse cx="-2.49075" cy="2512" rx="145.509" ry="149" fill="#0066FE" fill-opacity="0.5"/>
</g>
<g opacity="0.6">
<path d="M71.621 2517.41C71.621 2568.04 30.5811 2609.08 -20.0442 2609.08C-70.6694 2609.08 -111.709 2568.04 -111.709 2517.41C-111.709 2466.79 -70.6694 2425.75 -20.0442 2425.75C30.5811 2425.75 71.621 2466.79 71.621 2517.41Z" stroke="#0066FE" stroke-width="0.561916"/>
<path d="M106.727 2555.86C106.727 2601.87 69.4292 2639.17 23.4204 2639.17C-22.5885 2639.17 -59.886 2601.87 -59.886 2555.86C-59.886 2509.85 -22.5885 2472.56 23.4204 2472.56C69.4292 2472.56 106.727 2509.85 106.727 2555.86Z" stroke="#0066FE" stroke-width="0.561916"/>
<path d="M93.0724 2535.8C93.0724 2586.27 52.1583 2627.19 1.68826 2627.19C-48.7818 2627.19 -89.6959 2586.27 -89.6959 2535.8C-89.6959 2485.33 -48.7818 2444.42 1.68826 2444.42C52.1583 2444.42 93.0724 2485.33 93.0724 2535.8Z" stroke="#0066FE" stroke-width="1.12383"/>
<path opacity="0.7" d="M71.9019 2547.5C71.9019 2598.28 30.7363 2639.45 -20.0442 2639.45C-70.8246 2639.45 -111.99 2598.28 -111.99 2547.5C-111.99 2496.72 -70.8246 2455.56 -20.0442 2455.56C30.7363 2455.56 71.9019 2496.72 71.9019 2547.5Z" stroke="#0066FE" stroke-width="0.561916" stroke-linecap="round" stroke-dasharray="3.37 3.37"/>
<path opacity="0.7" d="M100.323 2509.05C100.323 2555.22 62.8998 2592.64 16.7358 2592.64C-29.4282 2592.64 -66.8516 2555.22 -66.8516 2509.05C-66.8516 2462.89 -29.4282 2425.47 16.7358 2425.47C62.8998 2425.47 100.323 2462.89 100.323 2509.05Z" stroke="#0066FE" stroke-width="0.561916" stroke-linecap="round" stroke-dasharray="3.37 3.37"/>
<path d="M37.3431 2534.97C37.3431 2555.12 21.0057 2571.46 0.852585 2571.46C-19.3005 2571.46 -35.6379 2555.12 -35.6379 2534.97C-35.6379 2514.81 -19.3005 2498.48 0.852585 2498.48C21.0057 2498.48 37.3431 2514.81 37.3431 2534.97Z" stroke="#0066FE" stroke-width="2.24766"/>
<path d="M42.3589 2534.97C42.3589 2557.89 23.7762 2576.47 0.85318 2576.47C-22.0698 2576.47 -40.6525 2557.89 -40.6525 2534.97C-40.6525 2512.04 -22.0698 2493.46 0.85318 2493.46C23.7762 2493.46 42.3589 2512.04 42.3589 2534.97Z" stroke="#0066FE" stroke-width="2.24766"/>
<path d="M21.7497 2534.97C21.7497 2546.51 12.3939 2555.86 0.852892 2555.86C-10.6881 2555.86 -20.0439 2546.51 -20.0439 2534.97C-20.0439 2523.42 -10.6881 2514.07 0.852892 2514.07C12.3939 2514.07 21.7497 2523.42 21.7497 2534.97Z" fill="#0066FE"/>
<path d="M20.064 2534.97C20.064 2545.58 11.4629 2554.18 0.852892 2554.18C-9.7571 2554.18 -18.3582 2545.58 -18.3582 2534.97C-18.3582 2524.36 -9.7571 2515.75 0.852892 2515.75C11.4629 2515.75 20.064 2524.36 20.064 2534.97Z" stroke="white" stroke-opacity="0.5" stroke-width="3.37149"/>
<path d="M0.853897 2587.68C29.9682 2587.68 53.5699 2564.08 53.5699 2534.97C53.5699 2505.85 29.9682 2482.25 0.853897 2482.25C-28.2604 2482.25 -51.8621 2505.85 -51.8621 2534.97C-51.8621 2564.08 -28.2604 2587.68 0.853897 2587.68Z" stroke="#0066FE" stroke-width="13.486"/>
</g>
<circle cx="364.5" cy="947.5" r="47" stroke="#0066FE"/>
<circle cx="350.5" cy="1613.5" r="47" stroke="#0066FE" stroke-dasharray="10 10"/>
<circle cx="350.5" cy="1613.5" r="26.5" fill="#0066FE" fill-opacity="0.6"/>
<circle cx="9" cy="1743" r="19.6066" stroke="#0066FE" stroke-opacity="0.6" stroke-width="12.7869"/>
<circle cx="308" cy="2306" r="19.6066" stroke="#0066FE" stroke-opacity="0.6" stroke-width="12.7869"/>
<circle cx="71.5" cy="2030.5" r="47.339" stroke="#0066FE" stroke-width="0.322034"/>
<circle cx="71.5004" cy="2030.5" r="26.5678" stroke="#0066FE" stroke-opacity="0.6" stroke-width="12.8814"/>
</g>
<defs>
<filter id="filter0_f_351_725" x="-240.234" y="-209.234" width="511.487" height="518.469" filterUnits="userSpaceOnUse" color-interpolation-filters="sRGB">
<feFlood flood-opacity="0" result="BackgroundImageFix"/>
<feBlend mode="normal" in="SourceGraphic" in2="BackgroundImageFix" result="shape"/>
<feGaussianBlur stdDeviation="55.1171" result="effect1_foregroundBlur_351_725"/>
</filter>
<filter id="filter1_f_351_725" x="-287.234" y="998.766" width="511.487" height="518.469" filterUnits="userSpaceOnUse" color-interpolation-filters="sRGB">
<feFlood flood-opacity="0" result="BackgroundImageFix"/>
<feBlend mode="normal" in="SourceGraphic" in2="BackgroundImageFix" result="shape"/>
<feGaussianBlur stdDeviation="55.1171" result="effect1_foregroundBlur_351_725"/>
</filter>
<filter id="filter2_f_351_725" x="118.53" y="309.53" width="507.939" height="514.872" filterUnits="userSpaceOnUse" color-interpolation-filters="sRGB">
<feFlood flood-opacity="0" result="BackgroundImageFix"/>
<feBlend mode="normal" in="SourceGraphic" in2="BackgroundImageFix" result="shape"/>
<feGaussianBlur stdDeviation="54.7348" result="effect1_foregroundBlur_351_725"/>
</filter>
<filter id="filter3_f_351_725" x="106.766" y="1691.77" width="511.487" height="518.469" filterUnits="userSpaceOnUse" color-interpolation-filters="sRGB">
<feFlood flood-opacity="0" result="BackgroundImageFix"/>
<feBlend mode="normal" in="SourceGraphic" in2="BackgroundImageFix" result="shape"/>
<feGaussianBlur stdDeviation="55.1171" result="effect1_foregroundBlur_351_725"/>
</filter>
<filter id="filter4_f_351_725" x="-258.234" y="2252.77" width="511.487" height="518.469" filterUnits="userSpaceOnUse" color-interpolation-filters="sRGB">
<feFlood flood-opacity="0" result="BackgroundImageFix"/>
<feBlend mode="normal" in="SourceGraphic" in2="BackgroundImageFix" result="shape"/>
<feGaussianBlur stdDeviation="55.1171" result="effect1_foregroundBlur_351_725"/>
</filter>
<clipPath id="clip0_351_725">
<rect width="360" height="2560" fill="white"/>
</clipPath>
</defs>
</svg>
