<svg width="300" height="300" viewBox="0 0 300 300" fill="none" xmlns="http://www.w3.org/2000/svg">
<circle cx="150" cy="150" r="150" fill="#0066FE" fill-opacity="0.15"/>
<path d="M51.3312 189.37C51.8878 190.975 52.0689 192.523 51.8744 194.013C51.6562 195.491 50.9846 196.831 49.8598 198.031C48.7113 199.219 47.0171 200.202 44.7773 200.979L44.2482 201.163C42.6257 201.725 41.1679 201.994 39.8747 201.968C38.564 201.949 37.4067 201.688 36.403 201.187C35.3931 200.668 34.5375 199.967 33.8361 199.084C33.1347 198.201 32.5822 197.177 32.1785 196.013C31.8176 194.973 31.6134 193.957 31.566 192.966C31.4948 191.963 31.5926 191.02 31.8594 190.137C32.1262 189.255 32.5918 188.461 33.2562 187.756C33.9146 187.034 34.7782 186.448 35.8472 185.998L37.2785 190.125C36.3053 190.68 35.6849 191.369 35.4175 192.193C35.15 193.017 35.1814 193.905 35.5117 194.857C35.7686 195.598 36.1923 196.222 36.7829 196.728C37.3558 197.241 38.1359 197.553 39.1231 197.665C40.1042 197.759 41.3355 197.55 42.8169 197.036L43.346 196.852C44.5099 196.448 45.4459 195.986 46.1539 195.463C46.8443 194.947 47.3572 194.404 47.6927 193.833C48.0105 193.268 48.1896 192.703 48.23 192.135C48.2527 191.574 48.1754 191.038 47.998 190.527C47.6493 189.521 47.1061 188.781 46.3683 188.306C45.6129 187.837 44.717 187.703 43.6804 187.905L42.2491 183.778C43.426 183.468 44.5023 183.382 45.478 183.517C46.4361 183.659 47.2901 183.985 48.0401 184.496C48.7725 185.012 49.4123 185.689 49.9597 186.527C50.507 187.364 50.9642 188.312 51.3312 189.37Z" fill="black"/>
<path d="M46.1384 165.646C46.2562 166.873 46.1819 168.052 45.9156 169.184C45.6493 170.316 45.1679 171.356 44.4714 172.304C43.7545 173.236 42.7884 174.013 41.5731 174.636C40.356 175.241 38.8556 175.629 37.0718 175.8L36.5143 175.853C34.8049 176.018 33.3231 175.916 32.0689 175.549C30.7943 175.165 29.7258 174.583 28.8633 173.804C27.999 173.005 27.3283 172.076 26.8514 171.015C26.3745 169.955 26.0771 168.811 25.9593 167.585C25.8415 166.359 25.9157 165.179 26.182 164.047C26.4483 162.915 26.9306 161.885 27.6289 160.955C28.3254 160.007 29.2637 159.232 30.4436 158.631C31.6032 158.013 33.0377 157.622 34.7472 157.458L35.3046 157.405C37.0884 157.233 38.6361 157.338 39.9478 157.718C41.2578 158.08 42.3542 158.659 43.2371 159.455C44.0996 160.235 44.7693 161.155 45.2462 162.216C45.7232 163.277 46.0206 164.42 46.1384 165.646ZM42.6265 165.984C42.5444 165.129 42.2735 164.358 41.8136 163.671C41.3335 162.967 40.6074 162.437 39.6355 162.08C38.6433 161.706 37.3388 161.597 35.7223 161.753L35.1649 161.806C33.6412 161.952 32.4557 162.301 31.6085 162.851C30.7408 163.384 30.1476 164.041 29.8288 164.822C29.5082 165.584 29.389 166.393 29.4711 167.248C29.5514 168.084 29.8224 168.855 30.284 169.56C30.7456 170.266 31.454 170.808 32.4091 171.185C33.3438 171.545 34.573 171.652 36.0966 171.505L36.6541 171.452C38.2706 171.297 39.5313 170.95 40.4361 170.413C41.3205 169.86 41.9314 169.192 42.2688 168.409C42.5876 167.628 42.7069 166.82 42.6265 165.984Z" fill="black"/>
<path d="M46.5602 141.304C46.3244 143.005 45.8657 144.412 45.1839 145.523C44.5048 146.616 43.6409 147.411 42.5923 147.906C41.5277 148.38 40.3432 148.565 39.0386 148.459L39.6383 144.133C40.2587 144.143 40.8101 144.041 41.2923 143.825C41.756 143.606 42.1439 143.255 42.456 142.771C42.7522 142.265 42.9554 141.615 43.0656 140.82C43.245 139.526 43.1354 138.549 42.7366 137.891C42.3405 137.214 41.7264 136.818 40.8943 136.703C40.3396 136.626 39.8409 136.689 39.3983 136.891C38.9582 137.075 38.5875 137.438 38.2861 137.981C37.9874 138.505 37.7714 139.247 37.6381 140.209L37.3536 142.261L34.5247 141.869L34.8091 139.817C34.9706 138.652 34.835 137.795 34.4024 137.245C33.9514 136.692 33.3745 136.367 32.6719 136.27C31.9878 136.175 31.4077 136.349 30.9317 136.792C30.4398 137.214 30.1209 137.952 29.9748 139.005C29.8774 139.708 29.8878 140.313 30.0061 140.819C30.1084 141.304 30.3266 141.702 30.6605 142.012C30.997 142.304 31.4479 142.517 32.0134 142.652L31.4137 146.978C29.4851 146.617 28.0982 145.746 27.2529 144.367C26.3892 142.984 26.1316 141.036 26.4802 138.521C26.8262 136.025 27.5724 134.244 28.719 133.178C29.847 132.109 31.2708 131.694 32.9904 131.932C34.0073 132.073 34.8418 132.443 35.4937 133.043C36.1271 133.639 36.5343 134.44 36.7154 135.445C37.1568 134.3 37.8173 133.478 38.6969 132.978C39.5606 132.457 40.6211 132.283 41.8785 132.458C43.0063 132.614 43.973 133.05 44.7785 133.764C45.5656 134.476 46.1267 135.459 46.4619 136.711C46.7786 137.961 46.8114 139.492 46.5602 141.304Z" fill="black"/>
<path d="M52.1025 128.219L45.4632 125.67L46.2461 123.631C45.7366 123.135 45.0884 122.636 44.3014 122.134C43.5211 121.615 42.6632 121.115 41.7275 120.636C40.7918 120.157 39.8253 119.706 38.8279 119.283C37.8199 118.835 36.8366 118.428 35.8782 118.06L31.7221 116.464L36.6607 103.603L51.7167 109.385L52.4796 107.399L59.1189 109.948L57.7939 113.399L54.3959 112.094L50.0495 123.412L53.4475 124.717L52.1025 128.219ZM47.7016 119.841L50.2211 113.28L38.4063 108.743L36.3887 113.997L37.8264 114.549C40.2311 115.472 42.2144 116.374 43.7762 117.254C45.3272 118.109 46.6357 118.972 47.7016 119.841Z" fill="black"/>
<path d="M58.1488 103.996L46.0855 86.9183L48.4418 83.4754L68.744 88.514L66.2454 92.1649L62.0872 91.1513L57.9915 97.136L60.4576 100.622L58.1488 103.996ZM55.8536 94.1122L58.5103 90.2302L51.567 88.3285L55.8536 94.1122Z" fill="black"/>
<path d="M73.6561 83.0803L60.4152 68.629L66.588 62.9733C68.212 61.4853 69.7178 60.7386 71.1053 60.7331C72.4939 60.7014 73.7431 61.2911 74.8528 62.5022C75.5338 63.2454 75.9344 64.0556 76.0546 64.9329C76.1759 65.7838 76.0341 66.6099 75.6291 67.4113C76.6315 66.8474 77.6377 66.647 78.6479 66.81C79.6455 66.9593 80.5731 67.5019 81.4306 68.4378C82.1872 69.2636 82.6772 70.1438 82.9006 71.0784C83.1113 71.9992 83.0028 72.9722 82.5748 73.9972C82.1342 75.0085 81.3084 76.069 80.0972 77.1787L73.6561 83.0803ZM74.5758 77.9084L77.3835 75.3359C78.3469 74.4532 78.8631 73.6764 78.932 73.0056C79.001 72.3348 78.7391 71.676 78.1464 71.0291C77.5537 70.3823 76.9077 70.0502 76.2082 70.0328C75.5099 69.9891 74.6652 70.4212 73.6743 71.3291L70.8873 73.8827L74.5758 77.9084ZM68.9579 71.7769L71.4352 69.5071C72.2748 68.7379 72.7084 68.0368 72.7361 67.4038C72.7775 66.7582 72.5397 66.1533 72.0227 65.589C71.493 65.0109 70.9244 64.7218 70.3166 64.7217C69.7089 64.7216 68.9852 65.1061 68.1457 65.8753L65.6477 68.1641L68.9579 71.7769Z" fill="black"/>
<path d="M90.3073 68.5474L87.0349 47.8967L90.6703 45.8499L106.654 59.3435L102.799 61.514L99.5174 58.7668L93.1982 62.3247L93.8695 66.5418L90.3073 68.5474ZM92.6171 58.6673L96.7161 56.3595L91.3285 51.5846L92.6171 58.6673Z" fill="black"/>
<path d="M113.405 56.579L108.088 37.7139L112.104 36.5822L115.636 49.114L120.323 34.2656L124.204 33.1718L129.521 52.0369L125.506 53.1687L121.974 40.6368L117.259 55.4929L113.405 56.579ZM115.842 34.3649C114.692 34.689 113.683 34.7892 112.814 34.6656C111.958 34.5189 111.257 34.1638 110.711 33.6003C110.159 33.0189 109.741 32.2251 109.458 31.2189L112.853 30.2619C113.096 31.1243 113.407 31.6767 113.786 31.9191C114.164 32.1614 114.632 32.2042 115.189 32.0472C115.782 31.8801 116.177 31.5943 116.373 31.1899C116.569 30.7855 116.546 30.1521 116.303 29.2897L119.699 28.3326C119.982 29.3388 120.04 30.2338 119.874 31.0179C119.702 31.7839 119.289 32.4529 118.636 33.0249C117.977 33.579 117.046 34.0256 115.842 34.3649Z" fill="black"/>
<path d="M143.351 50.4809L142.612 34.3698L136.319 34.6581L136.16 31.1898L152.915 30.4221L153.074 33.8905L146.78 34.1789L147.518 50.29L143.351 50.4809Z" fill="black"/>
<path d="M160.883 50.5913L164.099 31.2569L177.578 33.4989L177.008 36.9239L167.673 35.371L166.956 39.6798L175.463 41.0948L174.912 44.4093L166.405 42.9943L165.596 47.8555L174.932 49.4083L174.362 52.8333L160.883 50.5913Z" fill="black"/>
<path d="M193.322 59.1402L202.703 41.9307L217.159 49.8103L207.778 67.0198L204.115 65.0231L211.834 50.8621L204.704 46.9759L196.985 61.1369L193.322 59.1402Z" fill="black"/>
<path d="M214.763 72.0776L227.804 57.4458L233.427 62.4573C234.751 63.6372 235.665 64.8143 236.168 65.9884C236.685 67.1487 236.829 68.2774 236.601 69.3746C236.386 70.4579 235.843 71.4873 234.974 72.4627C234.105 73.4382 233.138 74.1019 232.074 74.454C231.022 74.792 229.885 74.7781 228.661 74.4122C227.449 74.0323 226.181 73.2524 224.857 72.0725L222.349 69.8369L217.878 74.8535L214.763 72.0776ZM224.659 67.245L226.854 69.2011C227.969 70.1948 228.917 70.7022 229.698 70.7234C230.493 70.757 231.214 70.4115 231.859 69.6869C232.493 68.9762 232.747 68.2278 232.623 67.4417C232.525 66.654 231.918 65.7634 230.803 64.7698L228.609 62.8136L224.659 67.245Z" fill="black"/>
<path d="M235.922 95.0807C235.217 94.0704 234.703 93.0069 234.379 91.8901C234.054 90.7733 233.963 89.6308 234.104 88.4627C234.27 87.2992 234.73 86.1476 235.483 85.0078C236.246 83.8834 237.362 82.8084 238.832 81.7828L239.291 81.4623C240.699 80.4795 242.04 79.8399 243.312 79.5434C244.611 79.2517 245.828 79.2335 246.962 79.489C248.107 79.7597 249.148 80.2398 250.084 80.9293C251.02 81.6188 251.841 82.4687 252.546 83.479C253.251 84.4893 253.766 85.5528 254.09 86.6696C254.414 87.7864 254.501 88.9212 254.349 90.074C254.208 91.2422 253.772 92.3778 253.039 93.4809C252.333 94.5886 251.275 95.6338 249.867 96.6167L249.408 96.9372C247.938 97.9627 246.539 98.6321 245.209 98.9452C243.891 99.2737 242.651 99.3079 241.491 99.0478C240.357 98.7923 239.321 98.3199 238.385 97.6304C237.448 96.9409 236.628 96.091 235.922 95.0807ZM238.816 93.0616C239.307 93.7658 239.922 94.3042 240.66 94.6768C241.424 95.0541 242.317 95.1593 243.339 94.9926C244.386 94.8304 245.576 94.2846 246.908 93.3552L247.367 93.0347C248.622 92.1587 249.484 91.273 249.951 90.3775C250.445 89.4867 250.639 88.6229 250.533 87.7863C250.438 86.9649 250.145 86.2022 249.653 85.4981C249.172 84.8092 248.558 84.2708 247.809 83.8829C247.06 83.4949 246.177 83.3713 245.16 83.5121C244.169 83.6575 243.046 84.1682 241.791 85.0442L241.331 85.3647C240 86.2942 239.072 87.215 238.547 88.1272C238.049 89.044 237.845 89.9261 237.936 90.7734C238.042 91.6101 238.335 92.3728 238.816 93.0616Z" fill="black"/>
<path d="M245.296 110.041L263.495 102.764L268.568 115.451L265.344 116.74L261.83 107.953L257.774 109.574L260.976 117.582L257.857 118.829L254.655 110.822L250.079 112.652L253.593 121.439L250.369 122.728L245.296 110.041Z" fill="black"/>
<path d="M252.712 130.853L272.06 127.718L272.727 131.836L264.85 133.113L265.119 134.771L273.999 139.686L274.738 144.246L264.362 138.155L255.435 147.658L254.651 142.821L262.078 135.264L261.81 133.605L253.38 134.971L252.712 130.853Z" fill="black"/>
<path d="M255.244 159.35L271.343 160.303L271.716 154.014L275.182 154.22L274.19 170.962L270.724 170.757L271.097 164.468L254.997 163.515L255.244 159.35Z" fill="black"/>
<path d="M253.648 176.718L272.335 182.63L271.077 186.608L264.403 184.496L263.558 187.166C262.753 189.711 261.607 191.414 260.121 192.275C258.653 193.142 257.011 193.288 255.195 192.714C253.38 192.14 252.112 191.073 251.391 189.514C250.689 187.96 250.74 185.911 251.545 183.366L253.648 176.718ZM255.7 181.743L254.982 184.012C254.531 185.436 254.456 186.509 254.757 187.23C255.052 187.97 255.617 188.472 256.454 188.736C257.29 189.001 258.041 188.915 258.708 188.48C259.369 188.063 259.924 187.142 260.374 185.718L261.092 183.449L255.7 181.743ZM248.589 192.709L267.276 198.621L266.01 202.625L247.322 196.714L248.589 192.709Z" fill="black"/>
<rect x="80" y="102.572" width="123.436" height="148.123" rx="13.7151" fill="#0066FE" fill-opacity="0.5"/>
<path fill-rule="evenodd" clip-rule="evenodd" d="M179.787 82H105.373C97.7982 82 91.6577 88.1404 91.6577 95.7151V220.522C91.6577 228.097 97.7982 234.237 105.373 234.237H206.864C214.439 234.237 220.579 228.097 220.579 220.522V122.778L179.787 82Z" fill="#3987FB"/>
<path fill-rule="evenodd" clip-rule="evenodd" d="M179.787 82H179.434V109.43C179.434 117.005 185.575 123.145 193.149 123.145H220.579V122.778L179.787 82Z" fill="#0066FE"/>
<circle cx="185.949" cy="196.863" r="28.1159" fill="#629FF9" stroke="white" stroke-width="3.42877"/>
<mask id="path-23-inside-1_277_433" fill="white">
<path d="M215.779 196.863C215.779 201.84 214.534 206.737 212.158 211.109C209.781 215.482 206.348 219.19 202.172 221.896C197.996 224.603 193.209 226.221 188.248 226.605C183.286 226.989 178.308 226.125 173.765 224.092L185.949 196.863H215.779Z"/>
</mask>
<path d="M215.779 196.863C215.779 201.84 214.534 206.737 212.158 211.109C209.781 215.482 206.348 219.19 202.172 221.896C197.996 224.603 193.209 226.221 188.248 226.605C183.286 226.989 178.308 226.125 173.765 224.092L185.949 196.863H215.779Z" fill="#0066FE" stroke="white" stroke-width="6.85753" mask="url(#path-23-inside-1_277_433)"/>
<path d="M108.116 100.858H128.688" stroke="white" stroke-width="3.42877" stroke-linecap="round"/>
<path d="M108.116 109.087H135.546" stroke="white" stroke-width="3.42877" stroke-linecap="round"/>
<path d="M108.116 117.316H169.834" stroke="white" stroke-width="3.42877" stroke-linecap="round"/>
<path d="M108.116 125.545H169.834" stroke="white" stroke-width="3.42877" stroke-linecap="round"/>
<path d="M108.116 133.774H190.406" stroke="white" stroke-width="3.42877" stroke-linecap="round"/>
<path d="M108.116 142.003H190.406" stroke="white" stroke-width="3.42877" stroke-linecap="round"/>
</svg>
