<svg width="300" height="300" viewBox="0 0 300 300" fill="none" xmlns="http://www.w3.org/2000/svg">
<circle cx="150" cy="150" r="150" fill="#0066FE" fill-opacity="0.15"/>
<path d="M43.7734 163.295L36.6617 163.363L36.6409 161.179C35.9849 160.905 35.1988 160.679 34.2824 160.501C33.3658 160.305 32.3843 160.155 31.338 160.053C30.2916 159.951 29.2269 159.887 28.144 159.86C27.0422 159.814 25.9779 159.796 24.9513 159.806L20.4995 159.849L20.3684 146.073L36.4957 145.92L36.4755 143.792L43.5871 143.724L43.6223 147.42L39.9825 147.455L40.0978 159.578L43.7377 159.543L43.7734 163.295ZM36.6023 157.119L36.5354 150.091L23.88 150.212L23.9335 155.84L25.4735 155.825C28.0493 155.8 30.2252 155.91 32.0009 156.155C33.7578 156.381 35.2916 156.702 36.6023 157.119Z" fill="black"/>
<path d="M42.7512 130.323C42.4994 131.529 42.0783 132.633 41.4878 133.635C40.8973 134.637 40.1287 135.487 39.1819 136.185C38.2207 136.862 37.0674 137.317 35.7218 137.551C34.3801 137.767 32.8321 137.692 31.078 137.326L30.5298 137.211C28.8487 136.86 27.4638 136.323 26.3753 135.6C25.2723 134.855 24.4248 133.982 23.8328 132.981C23.2446 131.962 22.8803 130.876 22.7399 129.721C22.5995 128.567 22.6552 127.387 22.907 126.181C23.1587 124.975 23.5798 123.871 24.1704 122.869C24.7609 121.867 25.5276 121.026 26.4705 120.346C27.4172 119.647 28.5432 119.186 29.8484 118.963C31.1391 118.717 32.625 118.77 34.3061 119.121L34.8543 119.235C36.6085 119.602 38.0553 120.161 39.1949 120.914C40.3383 121.648 41.2132 122.527 41.8196 123.55C42.4116 124.551 42.7778 125.628 42.9182 126.783C43.0586 127.937 43.0029 129.117 42.7512 130.323ZM39.2976 129.602C39.4731 128.762 39.4433 127.945 39.2084 127.152C38.959 126.337 38.4232 125.615 37.6011 124.986C36.7646 124.335 35.5514 123.843 33.9617 123.511L33.4135 123.397C31.9151 123.084 30.6797 123.065 29.7073 123.338C28.7204 123.59 27.9588 124.041 27.4224 124.692C26.89 125.324 26.536 126.061 26.3605 126.902C26.1889 127.724 26.2186 128.54 26.4498 129.351C26.6809 130.162 27.1965 130.89 27.9965 131.534C28.782 132.155 29.924 132.622 31.4224 132.935L31.9705 133.05C33.5603 133.382 34.8669 133.425 35.8903 133.181C36.8993 132.915 37.6811 132.459 38.2357 131.812C38.772 131.161 39.126 130.424 39.2976 129.602Z" fill="black"/>
<path d="M46.6016 115.034L28.6494 107.168L34.1896 94.5245L37.3697 95.918L33.504 104.74L36.9405 106.246L38.4014 102.912C39.4727 100.467 40.7846 98.8919 42.337 98.1863C43.8893 97.4807 45.5118 97.4987 47.2045 98.2404C48.8971 98.9821 50.0102 100.163 50.5437 101.782C51.0772 103.402 50.8082 105.434 49.7369 107.879L46.6016 115.034ZM45.0959 109.82L46.3883 106.87C47.0026 105.468 47.2122 104.409 47.017 103.691C46.8122 102.949 46.3165 102.406 45.5301 102.062C44.7436 101.717 44.0168 101.725 43.3496 102.084C42.6728 102.42 42.0273 103.288 41.4129 104.69L40.1206 107.64L45.0959 109.82Z" fill="black"/>
<path d="M54.7349 97.3893L42.8755 80.1698L45.2725 76.7551L65.5133 82.0347L62.9715 85.6557L58.8257 84.5927L54.6591 90.5283L57.0836 94.0434L54.7349 97.3893ZM52.5573 87.4793L55.26 83.6292L48.3398 81.645L52.5573 87.4793Z" fill="black"/>
<path d="M69.354 77.9943L55.9134 63.7285L62.0069 57.9875C63.6101 56.477 65.1054 55.7094 66.4927 55.6847C67.8807 55.6336 69.138 56.2059 70.2644 57.4015C70.9557 58.1352 71.3675 58.9397 71.4999 59.8152C71.633 60.6643 71.5027 61.4924 71.1089 62.2994C72.1033 61.7215 73.1067 61.5071 74.1191 61.6561C75.1186 61.7915 76.0536 62.3212 76.9241 63.245C77.6921 64.0602 78.1943 64.9335 78.4307 65.8649C78.6542 66.7827 78.5592 67.7571 78.1455 68.788C77.7191 69.8053 76.9081 70.8772 75.7125 72.0036L69.354 77.9943ZM70.2017 72.8101L72.9733 70.1988C73.9244 69.3027 74.4297 68.5188 74.4893 67.8472C74.5489 67.1755 74.2779 66.5203 73.6763 65.8818C73.0747 65.2432 72.424 64.9201 71.7244 64.9125C71.0255 64.8785 70.187 65.3223 69.2088 66.2439L66.4575 68.836L70.2017 72.8101ZM64.499 66.7573L66.9446 64.4532C67.7734 63.6724 68.1972 62.9653 68.216 62.332C68.2485 61.686 68.0023 61.0844 67.4775 60.5273C66.9398 59.9567 66.3672 59.6756 65.7595 59.6839C65.1518 59.6922 64.4336 60.0868 63.6048 60.8676L61.1389 63.1909L64.499 66.7573Z" fill="black"/>
<path d="M85.896 63.8163C85.7686 63.8942 85.6044 63.9836 85.4035 64.0844C85.2124 64.2012 85.0434 64.2826 84.8965 64.3286L82.9403 61.1268C82.9979 61.1136 83.1222 61.0486 83.3133 60.9318C83.6319 60.7371 83.8895 60.5142 84.0859 60.2629C84.2727 59.9957 84.3466 59.6333 84.3077 59.1758C84.2688 58.7183 84.1056 58.129 83.8181 57.4078C83.5209 56.6706 83.0701 55.7538 82.4659 54.6574C81.8678 53.5353 81.0773 52.1698 80.0944 50.561L77.1748 45.7823L89.3605 38.3374L99.5791 55.0628L95.995 57.2525L87.5866 43.4898L82.3779 46.6722L83.7793 48.966C85.0152 50.989 85.9897 52.7451 86.7028 54.2345C87.4061 55.7079 87.882 56.9702 88.1305 58.0215C88.395 59.063 88.4613 59.9413 88.3293 60.6562C88.2134 61.3615 87.9381 61.9672 87.5035 62.4733C87.069 62.9794 86.5332 63.4271 85.896 63.8163Z" fill="black"/>
<path d="M105.146 52.3875L107.32 43.5334C105.851 43.5797 104.626 43.2523 103.644 42.5512C102.662 41.8501 101.943 40.8574 101.487 39.5733C101.062 38.3772 100.957 37.2457 101.173 36.1787C101.382 35.0942 101.918 34.1214 102.781 33.2603C103.643 32.3992 104.84 31.6969 106.37 31.1534L113.89 28.4828L120.45 46.9526L116.492 48.3582L114.093 41.6035L111.191 42.6343L109.473 50.8508L105.146 52.3875ZM105.444 38.1677C105.757 39.0473 106.267 39.6189 106.975 39.8826C107.676 40.1286 108.757 39.9924 110.217 39.4739L112.987 38.49L111.094 33.1602L108.324 34.1441C106.864 34.6626 105.943 35.2473 105.56 35.8984C105.171 36.5318 105.132 37.2882 105.444 38.1677Z" fill="black"/>
<path d="M127.582 45.2187L125.041 25.7841L129.178 25.2433L130.866 38.1534L137.646 24.1362L141.644 23.6135L144.184 43.0482L140.048 43.589L138.36 30.6788L131.552 44.6997L127.582 45.2187ZM133.197 23.5883C132.012 23.7432 130.999 23.6968 130.157 23.4492C129.332 23.1806 128.689 22.7281 128.229 22.0917C127.767 21.4367 127.468 20.591 127.333 19.5545L130.831 19.0971C130.947 19.9856 131.175 20.577 131.515 20.8715C131.854 21.1659 132.311 21.2756 132.885 21.2006C133.496 21.1208 133.927 20.8949 134.18 20.523C134.433 20.1511 134.501 19.521 134.385 18.6325L137.883 18.1752C138.018 19.2117 137.947 20.1058 137.669 20.8576C137.388 21.5908 136.883 22.1933 136.154 22.6651C135.423 23.1184 134.437 23.4262 133.197 23.5883Z" fill="black"/>
<path d="M156.232 43.4264L157.41 27.3415L151.127 26.8812L151.38 23.4185L168.108 24.6438L167.854 28.1065L161.571 27.6463L160.392 43.7312L156.232 43.4264Z" fill="black"/>
<path d="M172.039 45.351L177.078 26.4097L190.282 29.9225L189.39 33.2778L180.244 30.8448L179.121 35.066L187.455 37.283L186.591 40.5301L178.257 38.313L176.99 43.0754L186.136 45.5084L185.244 48.8637L172.039 45.351Z" fill="black"/>
<path d="M206.996 59.7302C205.53 58.8349 204.424 57.8528 203.677 56.7839C202.946 55.7248 202.563 54.6157 202.527 53.4565C202.517 52.2911 202.821 51.1314 203.439 49.9774L207.166 52.2547C206.909 52.8193 206.783 53.3657 206.788 53.894C206.803 54.4063 206.97 54.9023 207.29 55.3819C207.635 55.8553 208.15 56.3012 208.835 56.7197C209.95 57.4009 210.889 57.6901 211.652 57.5874C212.43 57.4944 213.039 57.0895 213.477 56.3727C213.769 55.8948 213.91 55.4126 213.901 54.9259C213.908 54.4489 213.723 53.964 213.346 53.4712C212.985 52.9881 212.39 52.4935 211.562 51.9874L209.794 50.9072L211.283 48.47L213.051 49.5503C214.055 50.1634 214.895 50.3814 215.572 50.2044C216.258 50.0114 216.787 49.6123 217.157 49.007C217.517 48.4176 217.589 47.8163 217.373 47.2031C217.182 46.5837 216.633 45.9966 215.725 45.4419C215.12 45.0721 214.562 44.8403 214.05 44.7466C213.564 44.6466 213.113 44.6878 212.695 44.8702C212.293 45.0622 211.918 45.3906 211.568 45.8552L207.841 43.5779C208.942 41.954 210.294 41.03 211.897 40.806C213.509 40.566 215.398 41.1078 217.565 42.4313C219.715 43.7451 221.05 45.1405 221.57 46.6173C222.099 48.0782 221.911 49.5493 221.006 51.0307C220.471 51.9068 219.798 52.5241 218.989 52.8825C218.189 53.2251 217.292 53.2787 216.298 53.0434C217.172 53.9052 217.662 54.8392 217.769 55.8453C217.902 56.8452 217.638 57.8867 216.976 58.9699C216.382 59.9416 215.597 60.654 214.62 61.1072C213.653 61.5444 212.528 61.6666 211.246 61.4739C209.974 61.2652 208.557 60.684 206.996 59.7302Z" fill="black"/>
<path d="M217.726 66.3239L236.389 56.8985L239.449 59.7346L231.484 79.0771L228.24 76.0696L229.853 72.1053L224.534 67.1753L220.724 69.103L217.726 66.3239ZM227.839 65.5046L231.289 68.7024L234.19 62.1135L227.839 65.5046Z" fill="black"/>
<path d="M231.022 84.102L236.826 79.9922L238.089 81.7746C238.784 81.6256 239.558 81.363 240.413 80.9868C241.278 80.6258 242.169 80.189 243.087 79.6764C244.005 79.1637 244.916 78.6098 245.822 78.0146C246.753 77.4239 247.637 76.8319 248.475 76.2386L252.109 73.666L260.069 84.909L246.907 94.2288L248.136 95.9656L242.332 100.075L240.196 97.0589L243.167 94.9555L236.161 85.0607L233.19 87.1641L231.022 84.102ZM240.435 85.0881L244.496 90.8239L254.825 83.5105L251.573 78.9173L250.316 79.8072C248.213 81.2958 246.363 82.4458 244.765 83.2573C243.193 84.0732 241.749 84.6835 240.435 85.0881Z" fill="black"/>
<path d="M246.873 101.011L267.751 99.8978L269.41 103.726L254.332 118.225L252.573 114.165L255.646 111.186L252.762 104.532L248.498 104.762L246.873 101.011ZM256.46 104.333L258.33 108.649L263.638 103.786L256.46 104.333Z" fill="black"/>
<path d="M257.882 133.725L265.748 132.083C265.339 131.672 264.92 131.083 264.492 130.314C264.069 129.563 263.744 128.649 263.519 127.571C263.081 125.47 263.266 123.8 264.076 122.564C264.908 121.341 266.429 120.499 268.64 120.038L274.78 118.756L275.638 122.867L270.019 124.04C268.776 124.3 267.933 124.733 267.487 125.341C267.064 125.963 266.967 126.823 267.196 127.919C267.375 128.778 267.638 129.486 267.983 130.043C268.35 130.615 268.702 131.066 269.037 131.396L277.068 129.72L277.927 133.831L258.74 137.836L257.882 133.725Z" fill="black"/>
<path d="M259.582 145.549L279.182 145.656L279.159 149.828L266.139 149.757L279.112 158.368L279.09 162.4L259.49 162.293L259.513 158.121L272.533 158.192L259.56 149.553L259.582 145.549Z" fill="black"/>
<ellipse cx="195.027" cy="207.21" rx="30.9732" ry="31.1363" fill="#0066FE" fill-opacity="0.5"/>
<path fill-rule="evenodd" clip-rule="evenodd" d="M214.248 200.28C216.093 198.308 215.99 195.213 214.018 193.368C212.045 191.523 208.951 191.626 207.106 193.598L190.943 210.876L182.394 204.175C180.269 202.509 177.195 202.882 175.528 205.008C173.862 207.133 174.235 210.207 176.361 211.874L188.424 221.329C190.455 222.92 193.351 222.651 195.059 220.77C195.155 220.683 195.248 220.591 195.338 220.494L214.248 200.28Z" fill="white"/>
<path fill-rule="evenodd" clip-rule="evenodd" d="M92 99.781C92 94.3791 96.3791 90 101.781 90H189.158C194.56 90 198.939 94.3791 198.939 99.781V170.645C197.971 170.569 196.992 170.53 196.005 170.53C193.257 170.53 190.578 170.829 188 171.395V107H104V211H158.982C159.367 215.378 160.511 219.538 162.282 223.348H101.781C96.3791 223.348 92 218.969 92 213.567V99.781Z" fill="#0066FE"/>
<path d="M139.779 127.498L175.317 127.492" stroke="#0066FE" stroke-width="6.52068" stroke-linecap="round"/>
<path d="M139.779 167.933L163.905 167.929" stroke="#0066FE" stroke-width="6.52068" stroke-linecap="round"/>
<path d="M115 147.386L120.869 152.276" stroke="#0066FE" stroke-width="4.89051" stroke-linecap="round"/>
<path d="M130.649 141.518L120.868 152.277" stroke="#0066FE" stroke-width="4.89051" stroke-linecap="round"/>
<path d="M115 188.142L120.869 193.032" stroke="#0066FE" stroke-width="4.89051" stroke-linecap="round"/>
<path d="M130.649 182.272L120.868 193.032" stroke="#0066FE" stroke-width="4.89051" stroke-linecap="round"/>
<path d="M115.652 167.274L121.52 172.165" stroke="#0066FE" stroke-width="4.89051" stroke-linecap="round"/>
<path d="M131.301 161.406L121.52 172.165" stroke="#0066FE" stroke-width="4.89051" stroke-linecap="round"/>
<path d="M115 125.868L120.869 130.759" stroke="#0066FE" stroke-width="4.89051" stroke-linecap="round"/>
<path d="M130.649 120L120.868 130.759" stroke="#0066FE" stroke-width="4.89051" stroke-linecap="round"/>
<path d="M139.779 189.123L158.689 189.12" stroke="#0066FE" stroke-width="6.52068" stroke-linecap="round"/>
<path d="M139.779 148.696L175.317 148.69" stroke="#0066FE" stroke-width="6.52068" stroke-linecap="round"/>
</svg>
