<svg width="715" height="792" viewBox="0 0 715 792" fill="none" xmlns="http://www.w3.org/2000/svg">
<g opacity="0.05">
<ellipse cx="549.732" cy="625.407" rx="165.268" ry="166.137" fill="#0066FE" fill-opacity="0.5"/>
<path fill-rule="evenodd" clip-rule="evenodd" d="M652.294 588.436C662.14 577.911 661.59 561.398 651.065 551.552C640.541 541.707 624.028 542.257 614.182 552.782L527.941 644.969L482.327 609.218C470.984 600.328 454.582 602.316 445.691 613.659C436.801 625.002 438.789 641.404 450.132 650.294L514.499 700.744C525.332 709.235 540.779 707.803 549.89 697.778C550.406 697.308 550.908 696.813 551.393 696.294L652.294 588.436Z" fill="white"/>
<path fill-rule="evenodd" clip-rule="evenodd" d="M0 52.1897C0 23.3661 23.3662 0 52.1898 0H518.418C547.242 0 570.608 23.3662 570.608 52.1898V430.303C565.442 429.9 560.221 429.694 554.951 429.694C540.287 429.694 525.995 431.286 512.238 434.306V90.7083H64.0291V645.634H357.402C359.458 668.994 365.565 691.192 375.015 711.521H52.1898C23.3662 711.521 0 688.155 0 659.331V52.1897Z" fill="#0066FE"/>
<path d="M254.938 200.083L444.562 200.05" stroke="#0066FE" stroke-width="34.7932" stroke-linecap="round"/>
<path d="M254.938 415.837L383.673 415.816" stroke="#0066FE" stroke-width="34.7932" stroke-linecap="round"/>
<path d="M122.723 306.203L154.037 332.298" stroke="#0066FE" stroke-width="26.0949" stroke-linecap="round"/>
<path d="M206.227 274.892L154.037 332.3" stroke="#0066FE" stroke-width="26.0949" stroke-linecap="round"/>
<path d="M122.723 523.664L154.037 549.759" stroke="#0066FE" stroke-width="26.0949" stroke-linecap="round"/>
<path d="M206.226 492.35L154.036 549.758" stroke="#0066FE" stroke-width="26.0949" stroke-linecap="round"/>
<path d="M126.201 412.325L157.515 438.42" stroke="#0066FE" stroke-width="26.0949" stroke-linecap="round"/>
<path d="M209.702 381.014L157.512 438.422" stroke="#0066FE" stroke-width="26.0949" stroke-linecap="round"/>
<path d="M122.723 191.391L154.037 217.486" stroke="#0066FE" stroke-width="26.0949" stroke-linecap="round"/>
<path d="M206.227 160.079L154.037 217.488" stroke="#0066FE" stroke-width="26.0949" stroke-linecap="round"/>
<path d="M254.938 528.903L355.839 528.886" stroke="#0066FE" stroke-width="34.7932" stroke-linecap="round"/>
<path d="M254.938 313.192L444.562 313.16" stroke="#0066FE" stroke-width="34.7932" stroke-linecap="round"/>
</g>
</svg>
