<svg width="2560" height="1600" viewBox="0 0 2560 1600" fill="none" xmlns="http://www.w3.org/2000/svg">
<g clip-path="url(#clip0_696_432)">
<rect width="2560" height="1600" fill="white"/>
<path d="M650.743 -27.5776C573.112 352.56 168.325 720.119 -41 795.588V1649.5H422.01C1194.16 1137.99 885.021 379.114 1058.3 -27.5776H650.743Z" fill="#66A3FE" stroke="#66A3FE"/>
<path d="M-22.6343 805.481C312.78 666.365 626.109 198.299 664.758 -49.5H333.485C351.429 51.9384 99.7528 275.103 -22.6343 359.152V805.481Z" fill="#99C2FF" stroke="#99C2FF"/>
<path d="M2073.65 -49.5H1022.68C865.895 358.941 1111.7 1171.57 418.136 1649.5H1635.19C1951.41 1296.37 1846.45 177.412 2073.65 -49.5Z" fill="#3385FE" stroke="#3385FE"/>
<path d="M2601 -49.5H2067.23C1801.04 133.947 1985.43 1069.53 1601.39 1649.5L2601 1632.57V-49.5Z" fill="#0066FE" stroke="#0066FE"/>
<path d="M-22.6343 356.068C244.222 191.648 360 10.787 343.057 -30.3179H-22.6343V356.068Z" fill="#CCE0FF" stroke="#CCE0FF"/>
</g>
<defs>
<clipPath id="clip0_696_432">
<rect width="2560" height="1600" fill="white"/>
</clipPath>
</defs>
</svg>
