<svg width="120" height="120" viewBox="0 0 120 120" fill="none" xmlns="http://www.w3.org/2000/svg">
<g clip-path="url(#clip0_696_348)">
<g clip-path="url(#clip1_696_348)">
<mask id="mask0_696_348" style="mask-type:luminance" maskUnits="userSpaceOnUse" x="0" y="0" width="120" height="120">
<path d="M100 0H20C8.9543 0 0 8.9543 0 20V100C0 111.046 8.9543 120 20 120H100C111.046 120 120 111.046 120 100V20C120 8.9543 111.046 0 100 0Z" fill="white"/>
</mask>
<g mask="url(#mask0_696_348)">
<mask id="mask1_696_348" style="mask-type:luminance" maskUnits="userSpaceOnUse" x="10" y="10" width="100" height="100">
<path d="M90 10H30C18.9543 10 10 18.9543 10 30V90C10 101.046 18.9543 110 30 110H90C101.046 110 110 101.046 110 90V30C110 18.9543 101.046 10 90 10Z" fill="white"/>
</mask>
<g mask="url(#mask1_696_348)">
<path d="M90 10H30C18.9543 10 10 18.9543 10 30V90C10 101.046 18.9543 110 30 110H90C101.046 110 110 101.046 110 90V30C110 18.9543 101.046 10 90 10Z" fill="#0066FE"/>
<path d="M-35 54C-35 39.6406 -23.3594 28 -9 28H56C70.3594 28 82 39.6406 82 54V66C82 80.3594 70.3594 92 56 92H-9C-23.3594 92 -35 80.3594 -35 66V54Z" fill="white"/>
<path d="M92 54C92 39.6406 103.641 28 118 28H183C197.359 28 209 39.6406 209 54V66C209 80.3594 197.359 92 183 92H118C103.641 92 92 80.3594 92 66V54Z" fill="white"/>
<path d="M22 55C22 43.9543 30.9543 35 42 35H55C66.0457 35 75 43.9543 75 55V65C75 76.0457 66.0457 85 55 85H42C30.9543 85 22 76.0457 22 65V55Z" fill="#0066FE"/>
<path d="M60.8667 47.7983H57.3591C57.3591 54.9159 61.5348 58.7289 63.6227 59.7457H70.3874V57.9663C63.5726 57.763 61.2008 51.1029 60.8667 47.7983Z" fill="white"/>
<path d="M60.8667 71.693H57.3591C57.3591 64.5754 61.5348 60.7624 63.6227 59.7456H70.3874V61.525C63.5726 61.7284 61.2008 68.3884 60.8667 71.693Z" fill="white"/>
<path d="M35.8124 71.693H39.32C39.32 64.5754 35.1443 60.7624 33.0564 59.7456H26.2917V61.525C33.1065 61.7283 35.4783 68.3884 35.8124 71.693Z" fill="white"/>
<path d="M35.8124 47.7983H39.32C39.32 54.9159 35.1443 58.729 33.0564 59.7458H26.2917V57.9663C33.1065 57.763 35.4783 51.1029 35.8124 47.7983Z" fill="white"/>
<path d="M50.5385 48L42 72H45.4615L54 48H50.5385Z" fill="white"/>
<path d="M70.3874 59.7457V57.9663C63.5726 57.763 61.2008 51.1029 60.8667 47.7983H57.3591C57.3591 54.9159 61.5348 58.7289 63.6227 59.7457M70.3874 59.7457H63.6227M70.3874 59.7457V61.5251C63.5726 61.7285 61.2008 68.3885 60.8667 71.6931H57.3591C57.3591 64.5755 61.5348 60.7625 63.6227 59.7457M26.2918 59.7458V61.5252C33.1066 61.7285 35.4784 68.3886 35.8125 71.6932H39.3201C39.3201 64.5756 35.1444 60.7626 33.0565 59.7458M26.2918 59.7458H33.0565M26.2918 59.7458V57.9663C33.1066 57.763 35.4784 51.1029 35.8125 47.7983H39.3201C39.3201 54.9159 35.1444 58.729 33.0565 59.7458M-9 92H56C70.3594 92 82 80.3594 82 66V54C82 39.6406 70.3594 28 56 28H-9C-23.3594 28 -35 39.6406 -35 54V66C-35 80.3594 -23.3594 92 -9 92ZM118 92H183C197.359 92 209 80.3594 209 66V54C209 39.6406 197.359 28 183 28H118C103.641 28 92 39.6406 92 54V66C92 80.3594 103.641 92 118 92ZM42 85H55C66.0457 85 75 76.0457 75 65V55C75 43.9543 66.0457 35 55 35H42C30.9543 35 22 43.9543 22 55V65C22 76.0457 30.9543 85 42 85ZM42 72L50.5385 48H54L45.4615 72H42Z" stroke="white"/>
</g>
<path d="M88 2H32C15.4315 2 2 15.4315 2 32V88C2 104.569 15.4315 118 32 118H88C104.569 118 118 104.569 118 88V32C118 15.4315 104.569 2 88 2Z" stroke="#0066FE" stroke-width="4" stroke-linecap="round" stroke-dasharray="9 9"/>
</g>
</g>
</g>
<defs>
<clipPath id="clip0_696_348">
<rect width="120" height="120" fill="white"/>
</clipPath>
<clipPath id="clip1_696_348">
<rect width="120" height="120" fill="white"/>
</clipPath>
</defs>
</svg>
